# Blender v2.79 (sub 0) OBJ File: 'Grass_2.blend'
# www.blender.org
mtllib Grass_2.mtl
o Grass_2_Cube.034
v -0.003672 -0.020848 0.481477
v -0.023071 1.113693 0.476189
v -0.198617 -0.020848 0.418665
v -0.176001 1.112696 0.413966
v 0.059139 -0.020848 0.286533
v 0.037433 1.116107 0.288406
v -0.135806 -0.020848 0.223722
v -0.138501 1.148559 0.297581
v 0.167001 -0.020848 0.148293
v 0.179650 1.221582 0.126528
v 0.288148 -0.020848 -0.077845
v 0.290636 1.220039 -0.047971
v 0.393139 -0.020848 0.269440
v 0.397499 1.224476 0.243235
v 0.514286 -0.020848 0.043302
v 0.425941 1.273419 0.024515
v 0.093948 -0.020848 0.034848
v 0.069934 1.330246 0.027296
v -0.153300 -0.020848 -0.033588
v -0.124705 1.328703 -0.042586
v 0.162384 -0.020848 -0.212400
v 0.135861 1.333140 -0.210888
v -0.084864 -0.020848 -0.280836
v -0.083758 1.382083 -0.190522
v -0.522840 -0.020848 0.071221
v -0.507638 0.733580 0.055777
v -0.373470 -0.020848 -0.091436
v -0.377784 0.732447 -0.065994
v -0.360183 -0.020848 0.220590
v -0.350944 0.735705 0.199671
v -0.210814 -0.020848 0.057933
v -0.280461 0.771649 0.023378
v -0.406482 -0.020848 -0.223398
v -0.418380 1.089634 -0.239606
v -0.520034 -0.020848 -0.393852
v -0.499404 1.088684 -0.383461
v -0.236029 -0.020848 -0.336949
v -0.254188 1.091932 -0.348986
v -0.349581 -0.020848 -0.507403
v -0.397639 1.122827 -0.451254
v 0.616295 -0.020848 -0.429603
v 0.633941 0.531754 -0.431049
v 0.795504 -0.020848 -0.450567
v 0.779262 0.530285 -0.437125
v 0.637260 -0.020848 -0.250393
v 0.654137 0.534509 -0.258409
v 0.816469 -0.020848 -0.271358
v 0.791805 0.581106 -0.329899
v 0.390323 -0.020848 -0.575596
v 0.378450 0.770382 -0.556645
v 0.276091 -0.020848 -0.378386
v 0.274764 0.768913 -0.404983
v 0.193112 -0.020848 -0.689828
v 0.188469 0.773137 -0.666689
v 0.078881 -0.020848 -0.492617
v 0.156766 0.819734 -0.473332
v -0.874262 -0.020848 -0.269340
v -0.857687 0.628592 -0.267554
v -0.704815 -0.020848 -0.257007
v -0.722216 0.627513 -0.247450
v -0.886595 -0.020848 -0.099893
v -0.869568 0.630615 -0.104319
v -0.717149 -0.020848 -0.087560
v -0.729595 0.664835 -0.146065
vt 0.015244 0.891579
vt 0.015251 0.891191
vt 0.015307 0.891191
vt 0.015314 0.891579
vt 0.015417 0.891165
vt 0.015421 0.890777
vt 0.015463 0.890764
vt 0.015487 0.891165
vt 0.015417 0.891566
vt 0.015423 0.891165
vt 0.015481 0.891176
vt 0.015487 0.891566
vt 0.015401 0.891190
vt 0.015401 0.891579
vt 0.015334 0.891579
vt 0.015331 0.891190
vt 0.015314 0.891737
vt 0.015244 0.891737
vt 0.015244 0.891667
vt 0.015314 0.891667
vt 0.015671 0.891537
vt 0.015726 0.891491
vt 0.015726 0.891559
vt 0.015670 0.891495
vt 0.015331 0.891190
vt 0.015342 0.890764
vt 0.015410 0.890765
vt 0.015417 0.891190
vt 0.015160 0.891208
vt 0.015166 0.890783
vt 0.015217 0.890764
vt 0.015244 0.891208
vt 0.015075 0.891208
vt 0.015080 0.890764
vt 0.015154 0.890782
vt 0.015160 0.891208
vt 0.015331 0.890764
vt 0.015331 0.891191
vt 0.015248 0.891190
vt 0.015244 0.890765
vt 0.015630 0.891124
vt 0.015542 0.891124
vt 0.015542 0.891037
vt 0.015630 0.891037
vt 0.014988 0.891678
vt 0.015058 0.891618
vt 0.015058 0.891703
vt 0.014988 0.891624
vt 0.014988 0.891227
vt 0.014995 0.890764
vt 0.015066 0.890765
vt 0.015075 0.891227
vt 0.014813 0.891245
vt 0.014819 0.890783
vt 0.014871 0.890764
vt 0.014900 0.891245
vt 0.014726 0.891245
vt 0.014733 0.890764
vt 0.014805 0.890782
vt 0.014813 0.891245
vt 0.014988 0.890764
vt 0.014988 0.891228
vt 0.014904 0.891228
vt 0.014900 0.890765
vt 0.015244 0.891667
vt 0.015244 0.891579
vt 0.015332 0.891579
vt 0.015332 0.891667
vt 0.014814 0.891682
vt 0.014883 0.891626
vt 0.014883 0.891710
vt 0.014813 0.891631
vt 0.015545 0.891682
vt 0.015554 0.891424
vt 0.015607 0.891424
vt 0.015613 0.891682
vt 0.015610 0.891036
vt 0.015614 0.890778
vt 0.015653 0.890764
vt 0.015675 0.891036
vt 0.015610 0.890765
vt 0.015610 0.891037
vt 0.015545 0.891023
vt 0.015542 0.890764
vt 0.015615 0.891165
vt 0.015615 0.891424
vt 0.015547 0.891424
vt 0.015545 0.891165
vt 0.015332 0.891657
vt 0.015407 0.891657
vt 0.015407 0.891733
vt 0.015332 0.891733
vt 0.015545 0.891733
vt 0.015605 0.891682
vt 0.015605 0.891755
vt 0.015545 0.891687
vt 0.015487 0.891545
vt 0.015499 0.891165
vt 0.015543 0.891165
vt 0.015545 0.891545
vt 0.014988 0.891618
vt 0.014994 0.891239
vt 0.015027 0.891227
vt 0.015043 0.891618
vt 0.015542 0.890765
vt 0.015542 0.891157
vt 0.015487 0.891145
vt 0.015492 0.890764
vt 0.014867 0.891245
vt 0.014866 0.891626
vt 0.014814 0.891626
vt 0.014813 0.891246
vt 0.015683 0.891659
vt 0.015683 0.891729
vt 0.015613 0.891729
vt 0.015613 0.891659
vt 0.015671 0.891470
vt 0.015726 0.891424
vt 0.015726 0.891491
vt 0.015670 0.891428
vt 0.015417 0.891755
vt 0.015422 0.891566
vt 0.015470 0.891566
vt 0.015476 0.891755
vt 0.014900 0.891701
vt 0.014922 0.891513
vt 0.014957 0.891499
vt 0.014957 0.891706
vt 0.014726 0.891724
vt 0.014738 0.891517
vt 0.014773 0.891534
vt 0.014780 0.891724
vt 0.015543 0.891545
vt 0.015543 0.891735
vt 0.015489 0.891735
vt 0.015487 0.891545
vt 0.014988 0.891765
vt 0.015049 0.891703
vt 0.015049 0.891765
vt 0.015670 0.891601
vt 0.015720 0.891559
vt 0.015720 0.891618
vt 0.015671 0.891562
vt 0.014900 0.891499
vt 0.014910 0.891228
vt 0.014969 0.891228
vt 0.014976 0.891499
vt 0.015160 0.891490
vt 0.015189 0.891221
vt 0.015237 0.891208
vt 0.015237 0.891497
vt 0.015075 0.891496
vt 0.015078 0.891208
vt 0.015144 0.891225
vt 0.015151 0.891496
vt 0.014726 0.891517
vt 0.014728 0.891245
vt 0.014799 0.891246
vt 0.014800 0.891517
vt 0.015410 0.891579
vt 0.015410 0.891657
vt 0.015332 0.891657
vt 0.015332 0.891579
vt 0.015630 0.891087
vt 0.015692 0.891037
vt 0.015692 0.891111
vt 0.015630 0.891042
vt 0.015075 0.891719
vt 0.015080 0.891496
vt 0.015126 0.891497
vt 0.015132 0.891719
vt 0.015613 0.891659
vt 0.015617 0.891437
vt 0.015650 0.891424
vt 0.015670 0.891659
vt 0.015615 0.891400
vt 0.015625 0.891165
vt 0.015664 0.891177
vt 0.015670 0.891400
vt 0.015160 0.891720
vt 0.015162 0.891497
vt 0.015216 0.891497
vt 0.015217 0.891720
vt 0.014900 0.891706
vt 0.014958 0.891706
vt 0.014958 0.891764
vt 0.014900 0.891764
vt 0.015670 0.891204
vt 0.015718 0.891165
vt 0.015671 0.891168
vn -0.3382 0.0046 0.9410
vn -0.9523 0.0174 -0.3048
vn 0.1460 0.0340 -0.9887
vn 0.9516 0.0177 0.3067
vn 0.0000 -1.0000 0.0000
vn 0.1846 0.9802 0.0721
vn -0.1119 0.9592 0.2595
vn -0.8652 0.0069 -0.5013
vn 0.4699 0.0198 -0.8825
vn 0.9460 0.0370 0.3222
vn -0.4722 0.0202 0.8812
vn -0.1210 0.9719 0.2018
vn -0.2745 0.9440 -0.1829
vn -0.2987 0.0064 0.9543
vn -0.9642 0.0182 -0.2644
vn 0.1059 0.0341 -0.9938
vn 0.9636 0.0186 0.2668
vn 0.2234 0.9719 0.0737
vn -0.1181 0.9440 0.3080
vn -0.7136 0.0098 -0.7005
vn 0.6738 0.0279 -0.7384
vn 0.8353 0.0522 0.5473
vn -0.6762 0.0287 0.7362
vn -0.1438 0.9793 0.1422
vn -0.1909 0.9583 -0.2125
vn -0.8503 0.0047 0.5263
vn -0.5559 0.0178 -0.8311
vn 0.7293 0.0348 -0.6833
vn 0.5542 0.0181 0.8322
vn 0.0951 0.9820 0.1633
vn -0.2380 0.9628 0.1277
vn -0.0830 0.0109 -0.9965
vn 0.9921 0.0304 -0.1215
vn 0.2719 0.0571 0.9606
vn -0.9927 0.0319 0.1159
vn -0.3106 0.9503 0.0212
vn -0.0087 0.9040 -0.4274
vn 0.8481 0.0096 0.5298
vn -0.4977 0.0273 0.8669
vn -0.9335 0.0510 -0.3549
vn 0.5012 0.0282 -0.8649
vn 0.1362 0.9680 -0.2109
vn 0.2852 0.9365 0.2040
vn 0.1058 0.0088 -0.9943
vn 0.9973 0.0249 0.0692
vn 0.0894 0.0465 0.9949
vn -0.9970 0.0256 -0.0727
vn -0.2458 0.9689 -0.0299
vn 0.0581 0.9382 -0.3411
usemtl Atlas
s off
f 1/1/1 2/2/1 4/3/1 3/4/1
f 3/5/2 4/6/2 8/7/2 7/8/2
f 7/9/3 8/10/3 6/11/3 5/12/3
f 5/13/4 6/14/4 2/15/4 1/16/4
f 3/17/5 7/18/5 5/19/5 1/20/5
f 8/21/6 2/22/6 6/23/6
f 2/22/7 8/21/7 4/24/7
f 9/25/8 10/26/8 12/27/8 11/28/8
f 11/29/9 12/30/9 16/31/9 15/32/9
f 15/33/10 16/34/10 14/35/10 13/36/10
f 13/37/11 14/38/11 10/39/11 9/40/11
f 11/41/5 15/42/5 13/43/5 9/44/5
f 16/45/12 10/46/12 14/47/12
f 10/46/13 16/45/13 12/48/13
f 17/49/14 18/50/14 20/51/14 19/52/14
f 19/53/15 20/54/15 24/55/15 23/56/15
f 23/57/16 24/58/16 22/59/16 21/60/16
f 21/61/17 22/62/17 18/63/17 17/64/17
f 19/65/5 23/66/5 21/67/5 17/68/5
f 24/69/18 18/70/18 22/71/18
f 18/70/19 24/69/19 20/72/19
f 25/73/20 26/74/20 28/75/20 27/76/20
f 27/77/21 28/78/21 32/79/21 31/80/21
f 31/81/22 32/82/22 30/83/22 29/84/22
f 29/85/23 30/86/23 26/87/23 25/88/23
f 27/89/5 31/90/5 29/91/5 25/92/5
f 32/93/24 26/94/24 30/95/24
f 26/94/25 32/93/25 28/96/25
f 33/97/26 34/98/26 36/99/26 35/100/26
f 35/101/27 36/102/27 40/103/27 39/104/27
f 39/105/28 40/106/28 38/107/28 37/108/28
f 37/109/29 38/110/29 34/111/29 33/112/29
f 35/113/5 39/114/5 37/115/5 33/116/5
f 40/117/30 34/118/30 38/119/30
f 34/118/31 40/117/31 36/120/31
f 41/121/32 42/122/32 44/123/32 43/124/32
f 43/125/33 44/126/33 48/127/33 47/128/33
f 47/129/34 48/130/34 46/131/34 45/132/34
f 45/133/35 46/134/35 42/135/35 41/136/35
f 43/137/5 47/128/5 45/138/5 41/139/5
f 48/140/36 42/141/36 46/142/36
f 42/141/37 48/140/37 44/143/37
f 49/144/38 50/145/38 52/146/38 51/147/38
f 51/148/39 52/149/39 56/150/39 55/151/39
f 55/152/40 56/153/40 54/154/40 53/155/40
f 53/156/41 54/157/41 50/158/41 49/159/41
f 51/160/5 55/161/5 53/162/5 49/163/5
f 56/164/42 50/165/42 54/166/42
f 50/165/43 56/164/43 52/167/43
f 57/168/44 58/169/44 60/170/44 59/171/44
f 59/172/45 60/173/45 64/174/45 63/175/45
f 63/176/46 64/177/46 62/178/46 61/179/46
f 61/180/47 62/181/47 58/182/47 57/183/47
f 59/184/5 63/185/5 61/186/5 57/187/5
f 64/188/48 58/189/48 62/178/48
f 58/189/49 64/188/49 60/190/49
