# Blender v2.79 (sub 0) OBJ File: 'Rock_Large_1.blend'
# www.blender.org
mtllib Rock_Large_1.mtl
o Rock_Large_1_Cube.026
v -0.783859 0.076104 2.497001
v -0.704046 2.616991 2.262848
v -3.360141 -0.021456 -1.322391
v -1.649809 2.744370 1.020824
v 2.750317 0.289331 -2.057204
v 2.264204 2.470758 -1.429678
v -2.604335 0.180962 -2.303798
v 1.958051 -0.023638 0.663199
v 1.889088 2.785763 0.793775
v -1.264037 -0.114131 2.027037
v -1.132485 2.665279 1.738656
v 2.279526 0.246659 -2.635674
v 1.192051 2.799658 0.414650
v 1.384482 -0.098291 0.342773
v -0.690347 2.251190 2.619335
v -2.320149 2.420974 0.323760
v 2.397393 2.099267 -1.623205
v 2.570911 2.400136 0.478618
v -2.039083 2.327265 -1.837838
v 1.712569 2.227769 -2.152779
v -1.290656 2.293699 2.119644
v -1.900968 0.349066 -2.942383
v -0.344695 0.497585 -4.025246
v 0.224642 2.486982 -2.746501
v -1.283228 2.502067 -2.541646
v -1.243625 2.697293 -2.210912
v 0.736469 2.786535 -2.101831
v -0.047537 2.972996 -0.499937
v -1.474584 2.757099 -1.766631
v -1.479312 2.912311 -0.748110
v 1.115384 2.314892 2.635553
v 2.802154 2.386896 0.592735
v 3.519724 0.217759 -0.835369
v 3.821751 0.049651 1.786365
v 3.556211 1.308629 1.182970
v 3.290910 1.178713 -0.758182
v -3.065295 1.036038 -1.597232
v 2.496970 1.241208 -1.895732
v -2.406558 1.366512 -2.396456
v 1.671828 1.425770 -2.474895
v -1.327278 1.166674 2.290809
v -1.000590 1.374300 2.862761
v -0.109931 1.754304 -3.327281
v -1.810859 1.319861 -2.860015
v 1.115098 2.078381 3.160362
v -0.917026 2.020437 2.768482
v -1.341703 2.183512 -2.768074
v 3.324339 2.105856 1.333320
v -2.807534 2.175804 -1.089601
v 2.479708 1.911084 -1.759860
v -2.150109 2.126396 -2.254251
v 1.666440 2.070804 -2.291140
v -1.352346 2.051527 2.218117
v 0.047332 2.244286 -3.116941
v 3.206007 1.935586 -0.679500
v 2.048715 0.061530 3.210056
v 0.752143 0.069871 3.307235
v 0.557853 1.343037 3.209453
v 1.833500 1.324378 3.086339
v 0.826291 2.728886 1.677906
v 0.113397 2.769100 1.495557
v 1.720876 2.376355 1.968617
v 1.309287 2.396299 1.893094
v 2.108879 1.973863 2.886168
v -3.609441 -0.008337 -0.252930
v -2.455766 -0.012172 2.269824
v -3.848927 1.064853 0.032086
v -2.124012 1.237022 2.492795
v -2.953560 2.231404 -0.337733
v -1.808559 2.075236 2.278593
v -1.462240 2.706595 1.327113
v -1.443259 -0.175000 0.403448
v -1.802384 2.435187 1.400849
v -2.034017 2.213046 1.305484
v -3.232931 -0.032499 1.124435
v -3.255758 1.262886 1.484809
v -2.295568 2.253759 1.540943
v 1.191915 2.176133 2.974450
v -0.809580 2.192571 2.660079
v -1.319712 2.335881 -2.708565
v 3.203292 2.224092 1.111182
v -2.539505 2.253122 -1.038884
v 2.416057 2.007117 -1.753695
v -2.167120 2.187140 -2.114363
v 1.699014 2.147773 -2.216719
v -1.384851 2.219991 2.150109
v 0.127595 2.334460 -2.940240
v 2.100127 2.211895 2.354664
v -1.968361 2.274737 1.333501
v 2.965205 2.135965 -0.861359
v -1.619550 -0.190966 -1.764720
v -1.677380 -0.257010 -0.808064
v -0.981134 -0.315511 -0.180284
v -0.020351 -0.290816 0.522562
v 0.995922 -0.288847 -0.002794
v 2.060936 -0.127996 -2.207158
v -0.004440 0.052239 -3.623867
v -1.522913 -0.079293 -2.311258
v -0.618763 2.491720 2.500983
v 0.341087 2.663913 2.064785
v 1.759746 2.673632 -1.500160
v 1.897111 2.722751 -0.641448
v 2.261142 2.624017 -0.592991
v -2.129083 2.708613 0.334492
v -1.959461 2.832044 -0.073355
v -1.997322 -0.150989 -0.002305
v -1.214841 -0.304088 -0.348693
v -2.464770 2.304375 0.349634
v -3.605703 1.153596 0.945338
v -3.339525 -0.053003 0.564366
v -2.759332 2.255873 0.380294
v -2.492371 2.251039 0.426594
v -2.402107 2.385526 -0.995694
vt 0.017705 0.953309
vt 0.017735 0.953318
vt 0.017755 0.953363
vt 0.017795 0.953419
vt 0.017745 0.953431
vt 0.017378 0.952963
vt 0.017155 0.952938
vt 0.017292 0.952910
vt 0.017372 0.952927
vt 0.017601 0.952863
vt 0.017696 0.952970
vt 0.017639 0.952971
vt 0.017582 0.952876
vt 0.017177 0.953265
vt 0.017171 0.953403
vt 0.017146 0.953386
vt 0.017160 0.953259
vt 0.017845 0.952654
vt 0.017763 0.952657
vt 0.017764 0.952631
vt 0.017828 0.952625
vt 0.017561 0.952834
vt 0.017530 0.952849
vt 0.017143 0.953452
vt 0.017235 0.953543
vt 0.017222 0.953175
vt 0.017294 0.953156
vt 0.017289 0.953164
vt 0.017891 0.952682
vt 0.017909 0.952756
vt 0.017873 0.952688
vt 0.017687 0.952724
vt 0.017702 0.952696
vt 0.017762 0.952691
vt 0.017962 0.953280
vt 0.017984 0.953273
vt 0.017982 0.953299
vt 0.017968 0.953358
vt 0.017946 0.953364
vt 0.017728 0.953250
vt 0.017763 0.953292
vt 0.018015 0.953165
vt 0.017986 0.953152
vt 0.017989 0.953107
vt 0.017996 0.953036
vt 0.018013 0.953026
vt 0.017561 0.952888
vt 0.017396 0.953007
vt 0.017867 0.952769
vt 0.017825 0.952687
vt 0.017909 0.952801
vt 0.017803 0.953026
vt 0.017829 0.952969
vt 0.017848 0.952987
vt 0.017161 0.952986
vt 0.017205 0.952790
vt 0.017189 0.952652
vt 0.017259 0.952759
vt 0.017265 0.952806
vt 0.017784 0.953149
vt 0.017795 0.953212
vt 0.017526 0.953393
vt 0.017501 0.953391
vt 0.017488 0.953363
vt 0.017526 0.953320
vt 0.017748 0.952852
vt 0.017670 0.952782
vt 0.017855 0.952880
vt 0.017527 0.953320
vt 0.017544 0.953324
vt 0.017552 0.953342
vt 0.017552 0.953392
vt 0.017526 0.953376
vt 0.017112 0.953266
vt 0.017611 0.952736
vt 0.017618 0.952742
vt 0.017588 0.952801
vt 0.017568 0.952807
vt 0.017935 0.953531
vt 0.017948 0.953595
vt 0.017900 0.953625
vt 0.017889 0.953554
vt 0.017723 0.953244
vt 0.017697 0.953302
vt 0.017775 0.953132
vt 0.017775 0.953000
vt 0.017386 0.953167
vt 0.017488 0.953156
vt 0.017485 0.953291
vt 0.017417 0.953279
vt 0.017615 0.952829
vt 0.017328 0.953333
vt 0.017294 0.953305
vt 0.017306 0.953271
vt 0.017326 0.953257
vt 0.017550 0.952993
vt 0.017449 0.953156
vt 0.017795 0.953385
vt 0.017891 0.953367
vt 0.017798 0.953549
vt 0.017106 0.953387
vt 0.017122 0.953465
vt 0.017344 0.953326
vt 0.017341 0.953252
vt 0.017910 0.953148
vt 0.017927 0.953058
vt 0.017984 0.953046
vt 0.017955 0.953159
vt 0.017689 0.953303
vt 0.017699 0.953377
vt 0.017681 0.953395
vt 0.017488 0.953361
vt 0.017407 0.953332
vt 0.017347 0.953165
vt 0.017353 0.953252
vt 0.017418 0.953411
vt 0.017486 0.953452
vt 0.017464 0.953521
vt 0.017387 0.953536
vt 0.017661 0.953026
vt 0.017741 0.953092
vt 0.017675 0.953219
vt 0.017580 0.953224
vt 0.017645 0.953287
vt 0.017575 0.953278
vt 0.017818 0.953140
vt 0.017886 0.953192
vt 0.017795 0.953186
vt 0.017561 0.953378
vt 0.017630 0.953385
vt 0.017654 0.953500
vt 0.017574 0.953526
vt 0.017337 0.953170
vt 0.017351 0.953319
vt 0.017841 0.953026
vt 0.017328 0.953412
vt 0.017309 0.953459
vt 0.017770 0.953118
vt 0.017718 0.953238
vt 0.017947 0.953209
vt 0.017714 0.953508
vt 0.017808 0.953619
vt 0.017907 0.952902
vt 0.018015 0.953303
vt 0.017984 0.953252
vt 0.017948 0.953387
vt 0.018078 0.952684
vt 0.017993 0.952689
vt 0.018001 0.952627
vt 0.018077 0.952625
vt 0.017911 0.952693
vt 0.017914 0.952644
vt 0.017218 0.952838
vt 0.017078 0.952897
vt 0.017086 0.952797
vt 0.017557 0.953156
vt 0.017548 0.953248
vt 0.017500 0.953263
vt 0.017488 0.953179
vt 0.017694 0.952671
vt 0.017596 0.952723
vt 0.017631 0.952680
vt 0.017679 0.952658
vt 0.017557 0.953312
vt 0.017532 0.953320
vt 0.017105 0.952760
vt 0.017980 0.952845
vt 0.017919 0.952845
vt 0.017909 0.952780
vt 0.017983 0.952736
vt 0.018071 0.952821
vt 0.018076 0.952720
vt 0.017958 0.953217
vt 0.017964 0.953215
vt 0.017949 0.953290
vt 0.017841 0.952661
vt 0.017787 0.952688
vt 0.017777 0.952665
vt 0.017943 0.953293
vt 0.017095 0.953271
vt 0.017078 0.953414
vt 0.017625 0.952975
vt 0.017572 0.952882
vt 0.017116 0.953479
vt 0.017690 0.952676
vt 0.017561 0.952814
vt 0.017967 0.953162
vt 0.017722 0.953492
vt 0.017287 0.953156
vt 0.017210 0.953102
vt 0.017270 0.952826
vt 0.017305 0.952707
vt 0.017335 0.952680
vt 0.017478 0.952674
vt 0.017477 0.952634
vt 0.017274 0.952630
vt 0.017342 0.952625
vt 0.017239 0.953551
vt 0.017238 0.953562
vt 0.017291 0.953548
vt 0.017294 0.953554
vt 0.017936 0.953367
vt 0.017933 0.953363
vt 0.017127 0.952701
vt 0.017695 0.952686
vn 0.7416 0.6685 -0.0562
vn 0.1641 -0.9503 0.2645
vn -0.0311 0.8984 -0.4381
vn 0.0401 0.9984 0.0388
vn 0.1332 0.9851 0.1086
vn 0.6828 -0.7057 0.1894
vn -0.0239 0.9944 0.1028
vn 0.1710 0.9694 -0.1761
vn 0.0457 0.8907 0.4522
vn -0.2995 0.9406 0.1601
vn -0.6099 0.6579 0.4419
vn -0.5665 0.6958 0.4415
vn -0.6603 0.6488 0.3782
vn -0.7216 0.6660 0.1892
vn -0.6947 0.6981 0.1733
vn 0.4455 0.6616 -0.6032
vn 0.4375 0.6846 -0.5831
vn 0.4777 0.6556 -0.5848
vn 0.4971 0.6516 -0.5730
vn 0.4286 0.6620 0.6149
vn 0.3802 0.6135 0.6922
vn 0.3040 0.5329 0.7897
vn 0.1349 -0.9883 0.0708
vn 0.1660 -0.9840 -0.0644
vn 0.1404 -0.9876 -0.0696
vn 0.0762 -0.9971 0.0046
vn -0.0166 0.9925 0.1214
vn -0.0361 0.9916 0.1239
vn -0.0251 0.9863 0.1630
vn 0.0026 0.9958 0.0910
vn 0.3570 0.9251 -0.1295
vn 0.3155 0.9366 -0.1525
vn 0.2791 0.9447 -0.1720
vn -0.3536 -0.7874 0.5049
vn -0.3127 -0.8520 0.4198
vn -0.1518 -0.9845 0.0874
vn -0.1598 -0.9849 0.0662
vn -0.1452 -0.9838 0.1051
vn 0.3888 0.6284 -0.6737
vn 0.3822 0.7205 -0.5787
vn -0.5368 0.7558 -0.3750
vn -0.6631 0.7232 -0.1932
vn -0.0024 0.9948 0.1018
vn -0.0266 0.9944 0.1025
vn 0.0071 0.9969 0.0782
vn -0.4499 0.7247 0.5218
vn -0.5198 0.6463 0.5587
vn -0.5032 0.6961 0.5120
vn -0.4875 0.7081 0.5109
vn 0.6768 0.7283 -0.1072
vn 0.4792 0.8724 -0.0968
vn 0.6807 0.7246 -0.1074
vn -0.4360 0.8698 -0.2310
vn -0.5545 0.8156 -0.1651
vn -0.5035 0.8154 -0.2857
vn -0.4166 0.8678 -0.2709
vn 0.1758 0.0711 0.9819
vn 0.0627 0.1097 0.9920
vn -0.1242 0.0589 0.9905
vn 0.1337 0.0850 0.9874
vn 0.4714 0.5717 -0.6715
vn 0.5197 0.6464 -0.5587
vn 0.3837 0.6568 -0.6492
vn 0.1299 0.9909 -0.0354
vn 0.1263 0.9912 -0.0390
vn 0.1265 0.9912 -0.0388
vn -0.3576 0.3434 -0.8684
vn -0.4528 0.3529 -0.8188
vn -0.4573 0.3502 -0.8174
vn -0.0284 0.9897 -0.1404
vn -0.0281 0.9897 -0.1406
vn -0.0158 0.9885 -0.1507
vn -0.0338 0.9901 -0.1359
vn -0.5088 0.8096 -0.2925
vn -0.5307 0.7575 -0.3803
vn -0.5111 0.7483 -0.4229
vn 0.0743 -0.9938 -0.0827
vn 0.0314 -0.9993 -0.0180
vn 0.6540 0.3220 0.6845
vn 0.7155 0.1720 0.6771
vn 0.7096 0.1891 0.6788
vn 0.2636 0.9145 0.3069
vn 0.1907 0.9553 0.2257
vn 0.1790 0.9426 0.2818
vn 0.2163 0.8983 0.3824
vn -0.4869 0.8310 -0.2691
vn -0.4676 0.7989 -0.3784
vn -0.2773 0.0229 0.9605
vn -0.1991 0.1921 0.9610
vn 0.7847 0.3043 -0.5401
vn 0.7330 0.4512 -0.5090
vn 0.8005 0.2403 -0.5490
vn -0.7395 0.0782 -0.6686
vn -0.7090 0.0801 -0.7007
vn -0.6492 0.0831 -0.7561
vn -0.2189 0.5688 -0.7928
vn -0.3652 0.5112 -0.7780
vn -0.8506 0.0577 -0.5226
vn -0.8910 0.0439 -0.4519
vn -0.9335 0.0260 -0.3577
vn 0.4605 0.3570 -0.8127
vn 0.4603 0.3067 -0.8331
vn 0.5250 0.2916 -0.7996
vn 0.5736 0.3622 -0.7347
vn 0.6174 0.2924 -0.7303
vn 0.6428 0.3618 -0.6752
vn -0.8014 -0.0348 0.5971
vn -0.7808 -0.1117 0.6147
vn 0.9747 0.1887 -0.1196
vn 0.9729 0.2003 -0.1154
vn 0.9728 0.2008 -0.1153
vn -0.1170 0.7460 -0.6555
vn -0.2489 0.7082 -0.6607
vn -0.5368 0.3506 -0.7674
vn -0.5195 0.4916 -0.6989
vn -0.3477 -0.1520 0.9252
vn -0.1120 -0.0131 0.9936
vn -0.7258 0.5852 -0.3616
vn -0.8140 0.4066 -0.4149
vn -0.8327 0.4367 -0.3406
vn 0.4466 0.3830 -0.8086
vn 0.4920 0.4223 -0.7613
vn 0.5715 0.2896 -0.7678
vn -0.7209 0.5408 -0.4334
vn -0.7932 0.3780 -0.4775
vn -0.7534 0.2718 0.5988
vn -0.7185 0.3133 0.6210
vn 0.8665 0.4860 -0.1136
vn 0.9163 0.3842 -0.1135
vn 0.2708 0.9299 0.2488
vn 0.2006 0.9638 0.1757
vn 0.0859 0.1005 0.9912
vn 0.8098 0.2692 -0.5213
vn 0.8154 0.2073 -0.5405
vn 0.8153 0.2089 -0.5400
vn 0.0144 0.9981 0.0601
vn 0.4833 0.7132 0.5076
vn 0.7619 -0.0006 0.6477
vn -0.9082 -0.2581 0.3296
vn -0.9037 -0.2468 0.3500
vn -0.9170 -0.2849 0.2792
vn -0.7217 0.6550 0.2238
vn -0.7253 0.6536 0.2161
vn -0.7511 0.6413 0.1569
vn -0.0632 -0.9970 0.0457
vn -0.0650 -0.9965 0.0517
vn -0.0630 -0.9970 0.0448
vn 0.1967 -0.2053 0.9587
vn 0.2119 -0.0493 0.9761
vn 0.1918 -0.0610 0.9795
vn 0.0696 0.9971 -0.0303
vn 0.0503 0.9972 -0.0560
vn 0.0603 0.9973 -0.0427
vn 0.2124 0.1256 0.9691
vn -0.0698 -0.9974 0.0189
vn -0.0723 -0.9973 0.0136
vn -0.6136 0.4820 0.6254
vn -0.6627 0.5120 0.5465
vn -0.6539 0.5407 0.5291
vn -0.7470 -0.0611 0.6620
vn -0.8176 -0.1279 0.5614
vn -0.8431 -0.1560 0.5146
vn -0.6439 0.5065 0.5734
vn -0.7130 0.5210 0.4694
vn -0.0420 0.9938 0.1030
vn -0.8136 0.2094 0.5424
vn -0.7085 0.5487 0.4439
vn 0.3637 0.8648 0.3462
vn 0.2731 0.8720 0.4063
vn -0.0904 0.7626 -0.6405
vn -0.4952 0.5997 -0.6286
vn 0.2338 0.8719 0.4303
vn -0.5944 0.7576 0.2698
vn -0.5716 0.8089 0.1377
vn -0.5174 0.8556 0.0132
vn -0.4031 0.9150 0.0143
vn 0.5495 0.4319 -0.7152
vn -0.4854 0.6798 0.5497
vn -0.0011 -0.9995 0.0307
vn 0.0189 -0.9975 -0.0684
vn 0.0069 -0.9974 -0.0712
vn 0.0118 -0.9997 0.0190
vn 0.0013 -0.9955 -0.0945
vn 0.0002 -0.9948 -0.1014
vn 0.0116 -0.9964 -0.0838
vn 0.3503 -0.6401 -0.6838
vn -0.1786 -0.9461 -0.2702
vn -0.2673 -0.8613 -0.4322
vn -0.2513 -0.8775 -0.4085
vn -0.1734 -0.9502 -0.2588
vn -0.3025 -0.8210 -0.4843
vn -0.1440 -0.9702 -0.1948
vn -0.0875 -0.9930 0.0794
vn -0.1076 -0.9893 0.0988
vn -0.1115 -0.9884 0.1026
vn -0.1019 0.8012 0.5896
vn -0.1182 0.7676 0.6299
vn -0.0868 0.8298 0.5513
vn -0.0506 0.8884 0.4562
vn 0.3843 0.9161 -0.1139
vn 0.1225 0.9915 -0.0428
vn -0.0312 -0.9970 -0.0707
vn -0.0857 -0.9962 -0.0157
vn 0.0800 0.9967 -0.0166
vn -0.6800 0.6458 0.3472
vn -0.6785 0.6417 0.3576
vn -0.5371 0.8331 -0.1321
vn -0.4811 0.8534 -0.2007
usemtl Atlas
s off
f 17/1/1 6/2/1 103/3/1 9/4/1 18/5/1
f 14/6/2 10/7/2 94/8/2 95/9/2
f 26/10/3 27/11/3 24/12/3 25/13/3
f 18/14/4 63/15/4 62/16/4 32/17/4
f 53/18/5 74/19/5 77/20/5 70/21/5
f 12/22/6 14/6/6 95/9/6 96/23/6
f 31/24/7 62/16/7 63/15/7 15/25/7
f 32/17/8 90/26/8 83/27/8 17/28/8 18/14/8
f 99/29/9 100/30/9 2/31/9
f 105/32/10 104/33/10 4/34/10
s 1
f 73/35/11 71/36/12 4/37/13 104/38/14 16/39/15
f 20/40/16 101/41/17 6/2/18 17/1/19
f 63/42/20 60/43/21 100/44/22 99/45/22 15/46/22
f 14/6/23 12/22/24 5/47/25 8/48/26
f 61/49/27 11/50/28 2/31/29 100/30/29 60/51/30
f 6/52/31 102/53/32 103/54/33
f 10/7/34 14/6/23 8/48/26 1/55/35
f 106/56/36 3/57/37 92/58/37 107/59/38
f 24/60/39 27/61/40 101/41/17 20/40/16
f 16/62/15 104/63/14 105/64/41 113/65/42
f 28/66/43 30/67/44 61/49/27 13/68/45
f 15/69/46 99/70/47 2/71/47 11/72/48 21/73/49
f 90/26/50 32/17/51 81/74/52
f 82/75/53 113/76/54 19/77/55 84/78/56
f 64/79/57 45/80/58 58/81/59 59/82/60
f 85/83/61 20/40/16 17/1/19 83/84/62
f 87/85/63 24/60/39 20/40/16 85/83/61
f 27/11/64 28/66/64 13/68/65 102/53/66 101/86/64
f 43/87/67 23/88/68 22/89/68 44/90/69
f 28/66/70 29/91/71 30/67/72
f 28/66/70 27/11/73 26/10/73 29/91/71
f 19/92/55 29/93/74 26/94/75 25/95/76
f 5/47/25 33/96/77 34/97/78 8/48/26
f 34/98/79 35/99/80 59/82/81 56/100/79
f 88/101/82 62/16/83 31/24/84 78/102/85
f 84/103/56 19/92/55 25/95/86 80/104/87
f 42/105/88 58/106/59 45/107/58 46/108/89
f 50/109/90 83/84/91 90/110/91 55/111/92
f 7/112/93 39/113/94 44/90/95 22/89/95
f 54/114/96 43/87/67 44/90/69 47/115/97
f 37/116/98 3/117/99 65/118/100 67/119/100
f 23/120/101 43/121/102 40/122/103 12/123/104
f 12/123/104 40/122/103 38/124/105 5/125/106
f 3/117/99 37/116/98 39/113/94 7/112/93
f 1/126/35 42/105/107 41/127/108 10/128/34
f 33/129/109 36/130/110 35/131/111 34/132/109
f 87/133/112 54/114/96 47/115/97 80/104/113
f 39/113/114 51/134/115 47/115/97 44/90/69
f 1/126/116 57/135/117 58/106/59 42/105/88
f 49/136/118 37/116/119 67/119/120 69/137/120
f 43/121/102 54/138/121 52/139/122 40/122/103
f 40/122/103 52/139/122 50/109/123 38/124/105
f 37/116/119 49/136/118 51/134/124 39/113/125
f 42/105/107 46/108/126 53/140/127 41/127/108
f 36/130/110 55/111/128 48/141/129 35/131/111
f 81/74/130 32/17/131 62/16/83 88/101/82
f 56/100/132 59/82/60 58/81/59 57/142/117
f 5/125/133 38/124/134 36/130/135 33/129/133
f 13/68/45 61/49/27 60/51/30 9/143/136
f 18/144/137 9/145/137 60/43/21 63/42/20
f 35/99/80 48/146/138 64/79/138 59/82/81
f 110/147/139 109/148/140 67/149/141 65/150/141
f 109/148/142 111/151/143 69/152/144 67/149/144
f 72/153/145 10/7/146 66/154/146 75/155/147
f 10/156/148 41/157/149 68/158/150 66/159/148
f 112/160/151 49/161/152 69/162/152 111/163/153
f 41/157/149 53/164/154 70/165/154 68/158/150
f 106/56/155 72/153/145 75/155/147 110/166/156
f 68/167/157 70/168/157 77/169/158 76/170/159
f 66/171/160 68/167/160 76/170/161 75/172/162
f 86/173/163 21/174/49 73/35/11 89/175/164
f 21/176/49 11/50/48 71/177/12 73/178/11
f 61/49/27 30/67/44 105/32/165 4/34/165 71/177/165 11/50/28
f 53/140/166 86/173/163 89/175/164 74/179/167
f 48/180/168 81/74/130 88/101/82 64/181/169
f 38/124/134 50/109/90 55/111/92 36/130/135
f 24/12/170 87/182/112 80/183/113 25/13/170
f 51/134/115 84/103/171 80/104/113 47/115/97
f 64/181/169 88/101/82 78/102/85 45/184/172
f 112/160/173 108/185/174 82/75/175 49/161/176
f 54/138/121 87/85/63 85/83/61 52/139/122
f 52/139/122 85/83/61 83/84/177 50/109/123
f 49/161/118 82/75/53 84/78/56 51/186/124
f 46/108/126 79/187/178 86/173/163 53/140/127
f 55/111/128 90/110/50 81/188/52 48/141/129
f 8/48/26 34/97/78 56/189/179 57/190/179 1/55/35
f 93/191/180 95/9/181 94/8/182
f 91/192/183 98/193/184 97/194/184 96/23/184 95/9/181
f 107/59/185 91/192/183 95/9/181 93/191/180
f 23/195/186 12/22/186 96/23/186 97/194/186
f 7/196/187 22/197/188 98/193/189 91/192/190
f 22/197/188 23/195/191 97/194/191 98/193/189
f 3/57/192 7/196/187 91/192/190 92/58/192
f 10/7/193 72/153/194 93/191/195 94/8/193
f 79/198/196 46/199/197 45/184/197 78/102/198
f 15/25/199 79/198/196 78/102/198 31/24/199
f 79/198/178 15/25/46 21/200/49 86/201/163
f 101/86/200 102/53/32 6/52/31
f 103/54/201 102/53/66 13/68/65 9/143/201
f 92/58/202 91/192/183 107/59/185
f 74/179/167 89/175/164 108/202/174 112/203/173
f 3/57/203 106/56/155 110/166/156 65/204/203
f 74/19/204 112/160/151 111/163/153 77/20/204
f 76/170/205 77/169/206 111/151/143 109/148/142
f 75/172/162 76/170/161 109/148/140 110/147/139
f 89/175/164 73/35/11 16/39/15 108/202/174
f 72/153/194 106/56/36 107/59/38 93/191/195
f 108/185/174 16/205/15 113/76/42 82/75/175
f 113/76/54 105/32/207 30/67/208 29/91/74 19/77/55
