# Blender v2.79 (sub 0) OBJ File: 'Rock_2.blend'
# www.blender.org
mtllib Rock_2.mtl
o Rock_2_Cube.023
v -0.811769 -0.049979 -0.924021
v -1.078217 0.105298 0.720295
v -1.174062 -0.266996 0.056967
v -0.917157 1.191008 -0.800996
v -1.059653 0.893777 0.630023
v -1.134495 1.341072 0.144965
v -1.316774 1.116088 -0.595463
v -1.548942 1.220064 0.138832
v -1.354131 0.014898 0.565327
v -1.776220 -0.151885 0.000652
v -1.745990 0.447726 0.121303
v -1.400512 0.309625 0.585715
v -1.133857 0.333987 0.688950
v -0.843392 0.521726 -0.934693
v -1.392055 0.834383 -0.706395
v -0.872912 0.766981 -0.863636
v -1.726852 0.878067 0.068772
v -1.126802 0.550320 0.669451
v -1.407391 0.591785 0.565364
v -1.514219 -0.127380 -0.518575
v -1.202555 -0.102902 -0.702252
v -1.233206 0.508160 -0.761028
v -1.549180 0.492526 -0.576265
v -1.361207 1.314823 -0.217830
v -1.197061 1.354952 -0.214746
v -1.607751 0.655088 -0.520653
v -1.366329 0.964632 -0.655613
v -0.920725 0.949715 -0.856988
v -1.664894 1.037215 0.108190
v -1.518525 0.982673 -0.372824
v -1.369727 0.847689 0.570549
v 0.754063 -0.153140 0.639967
v 0.602933 1.389684 0.398026
v -0.086010 1.445423 -0.684135
v 0.735217 1.317810 -0.223935
v 0.176984 1.421756 -0.974918
v -0.250256 0.025213 -1.167272
v 0.633308 -0.114970 -1.188322
v 0.403471 0.492906 -1.176049
v -0.266695 0.266951 -1.167771
v 0.761901 0.558422 0.529074
v 0.920371 0.996374 -0.239122
v 0.677617 0.899297 0.439860
v 0.397022 1.032666 -1.108880
v -0.271983 0.626084 -1.149954
v 0.965607 -0.071213 -0.532509
v 0.928144 -0.048421 -0.068358
v 0.887290 0.583812 -0.052819
v 0.935236 0.580490 -0.494867
v 0.373350 1.540001 -0.536564
v 0.335815 1.513866 -0.368461
v 0.911607 0.775941 -0.579878
v 0.839748 1.146709 -0.238511
v 0.691512 1.128868 0.378049
v 0.302109 1.214918 -1.071332
v 0.669674 1.155576 -0.585820
v -0.337352 0.928264 -1.109444
v -0.720852 -0.378047 0.479581
v -0.876013 1.249446 0.612306
v -0.789048 -0.312949 0.938796
v 0.103666 -0.360355 1.173804
v -0.891516 0.164180 1.228944
v 0.281474 0.459887 1.303075
v -0.788872 1.118150 0.843216
v 0.397111 0.759658 1.170752
v -0.307394 -0.414191 0.393374
v -0.132717 1.420410 0.675626
v -0.363847 -0.353825 1.076718
v -0.335171 0.335685 1.329332
v -0.078237 1.191910 1.017240
v -0.550891 -0.412410 0.391536
v -0.669253 0.229553 1.299483
v -0.608283 -0.336720 1.001999
v -0.581687 1.146832 0.908682
v -0.680025 1.290702 0.568152
v -0.145155 1.171729 -1.046249
v -0.498725 1.128995 -0.770455
v -0.163963 -0.370168 1.125213
v 0.287851 1.174206 0.574957
v 0.145435 0.988786 1.104198
v -0.085117 0.400692 1.330191
v 0.094018 -0.473492 -0.581978
v -0.853454 1.405719 -0.712205
v -1.123444 1.516828 -0.177281
v 0.568934 1.693889 0.226865
v -0.061801 1.650028 -0.643516
v 0.343819 1.723006 -0.433684
v -0.184087 1.676187 0.606109
v -0.792218 1.714359 0.312592
v -0.593741 1.674851 -0.624550
v 0.373769 2.174875 0.140440
v -0.237653 2.147209 -0.452576
v 0.183357 2.237538 -0.343434
v -0.303813 2.143157 0.400187
v -0.716866 1.961808 0.303832
v -0.602328 1.892409 -0.486315
v 0.585573 -0.331926 0.624930
v -0.244073 -0.206532 -1.075737
v 0.541513 -0.365395 -1.092486
v 0.833755 -0.328513 -0.498087
v 0.789657 -0.302446 -0.106584
v -0.864421 -0.174708 -0.749861
v -0.339343 -0.447275 0.380005
v -1.038166 0.331921 0.698906
v -1.005473 0.516912 0.681445
v -0.633749 0.601461 1.141033
v -0.841813 0.626116 1.042165
vt 0.017866 0.950507
vt 0.017897 0.950559
vt 0.017876 0.950577
vt 0.017813 0.950553
vt 0.017915 0.950619
vt 0.017987 0.950601
vt 0.017777 0.950477
vt 0.017810 0.950436
vt 0.017325 0.950748
vt 0.017340 0.950670
vt 0.017360 0.950691
vt 0.017393 0.950823
vt 0.018119 0.950633
vt 0.018123 0.950597
vt 0.018138 0.950599
vt 0.018138 0.950631
vt 0.018044 0.949823
vt 0.018035 0.949949
vt 0.017972 0.949901
vt 0.018015 0.949831
vt 0.018067 0.950231
vt 0.018044 0.950140
vt 0.018116 0.950076
vt 0.018116 0.950233
vt 0.017879 0.950619
vt 0.017879 0.950779
vt 0.017837 0.950776
vt 0.017845 0.950643
vt 0.017421 0.950587
vt 0.017306 0.950592
vt 0.017188 0.950537
vt 0.017289 0.950491
vt 0.017187 0.950427
vt 0.017221 0.950371
vt 0.017302 0.950275
vt 0.018138 0.950561
vt 0.018138 0.950755
vt 0.018119 0.950692
vt 0.018070 0.950677
vt 0.018011 0.950736
vt 0.017995 0.950703
vt 0.017198 0.950029
vt 0.017243 0.950011
vt 0.017258 0.950070
vt 0.017203 0.950058
vt 0.017555 0.950439
vt 0.017542 0.950389
vt 0.017559 0.950274
vt 0.017622 0.950353
vt 0.018165 0.949823
vt 0.018186 0.949921
vt 0.018068 0.949934
vt 0.018073 0.949837
vt 0.018102 0.950014
vt 0.018123 0.950076
vt 0.018060 0.950045
vt 0.018052 0.950018
vt 0.017324 0.950085
vt 0.017326 0.950042
vt 0.018069 0.950634
vt 0.018090 0.950540
vt 0.018077 0.950587
vt 0.017996 0.950604
vt 0.017998 0.950505
vt 0.017309 0.950178
vt 0.017241 0.950169
vt 0.017987 0.950676
vt 0.018185 0.950019
vt 0.018186 0.950054
vt 0.017187 0.950158
vt 0.018180 0.949990
vt 0.018080 0.949957
vt 0.018044 0.949995
vt 0.017649 0.950244
vt 0.017706 0.950259
vt 0.017777 0.950278
vt 0.017324 0.950011
vt 0.017250 0.949989
vt 0.017332 0.949971
vt 0.017262 0.949965
vt 0.017422 0.950039
vt 0.017459 0.950004
vt 0.017517 0.949972
vt 0.017532 0.950012
vt 0.017673 0.950147
vt 0.017638 0.950091
vt 0.017705 0.950060
vt 0.017705 0.950134
vt 0.017393 0.950609
vt 0.017333 0.950592
vt 0.017809 0.950064
vt 0.017826 0.949943
vt 0.017853 0.949943
vt 0.017848 0.950068
vt 0.017813 0.950244
vt 0.017711 0.950237
vt 0.017812 0.950142
vt 0.017608 0.950143
vt 0.017542 0.950129
vt 0.017583 0.950084
vt 0.017613 0.950089
vt 0.017710 0.949961
vt 0.017653 0.949973
vt 0.017423 0.950091
vt 0.017406 0.950190
vt 0.017412 0.950150
vt 0.017526 0.950134
vt 0.017542 0.950240
vt 0.017541 0.950045
vt 0.017592 0.950216
vt 0.017557 0.950198
vt 0.017623 0.950225
vt 0.018159 0.950505
vt 0.018159 0.950745
vt 0.018138 0.950719
vt 0.018154 0.950509
vt 0.017779 0.950716
vt 0.017777 0.950667
vt 0.017837 0.950619
vt 0.017837 0.950696
vt 0.017615 0.949984
vt 0.017572 0.949978
vt 0.017491 0.950462
vt 0.017536 0.950530
vt 0.017462 0.950509
vt 0.017421 0.950430
vt 0.017536 0.950275
vt 0.017507 0.950395
vt 0.017460 0.950360
vt 0.017502 0.950286
vt 0.018155 0.950499
vt 0.018147 0.950409
vt 0.018185 0.950419
vt 0.018187 0.950494
vt 0.018149 0.950345
vt 0.018186 0.950340
vt 0.017684 0.950496
vt 0.017777 0.950648
vt 0.017641 0.950636
vt 0.017615 0.950599
vt 0.017722 0.949823
vt 0.017853 0.949842
vt 0.017875 0.950403
vt 0.017845 0.950419
vt 0.017827 0.950380
vt 0.017846 0.950349
vt 0.017674 0.949847
vt 0.017987 0.950295
vt 0.017934 0.950330
vt 0.017897 0.950280
vt 0.017908 0.950244
vt 0.017656 0.950467
vt 0.017598 0.950570
vt 0.017578 0.950532
vt 0.018055 0.950380
vt 0.018029 0.950279
vt 0.018067 0.950244
vt 0.018093 0.950391
vt 0.018080 0.950505
vt 0.018114 0.950502
vt 0.017626 0.950457
vt 0.017565 0.950503
vt 0.018072 0.950767
vt 0.017778 0.950772
vt 0.017834 0.950767
vt 0.017395 0.949993
vt 0.018036 0.950504
vt 0.017999 0.950369
vt 0.017987 0.950317
vt 0.017603 0.949943
vt 0.017633 0.949853
vt 0.018044 0.950163
vt 0.018007 0.950153
vt 0.018016 0.950101
vt 0.017969 0.950131
vt 0.017993 0.950033
vt 0.017922 0.950105
vt 0.017955 0.950012
vt 0.017347 0.949935
vt 0.017396 0.949898
vt 0.017914 0.950619
vt 0.017914 0.950726
vt 0.017886 0.950735
vt 0.017879 0.950637
vt 0.017470 0.949952
vt 0.017480 0.949919
vt 0.017532 0.949946
vt 0.017542 0.949914
vt 0.017541 0.950530
vt 0.017541 0.950655
vt 0.017510 0.950672
vt 0.017498 0.950567
vt 0.017464 0.949828
vt 0.017532 0.949823
vt 0.017853 0.950053
vt 0.017885 0.949965
vt 0.017399 0.949858
vt 0.017930 0.949903
vt 0.017423 0.950672
vt 0.017421 0.950595
vt 0.017242 0.950592
vt 0.017317 0.950633
vt 0.017325 0.950706
vt 0.017187 0.950698
vt 0.017190 0.950772
vt 0.017316 0.950772
vt 0.017852 0.950134
vt 0.017853 0.950227
vt 0.017397 0.950225
vt 0.017293 0.950192
vt 0.017421 0.950377
vt 0.017415 0.950592
vt 0.017415 0.950778
vt 0.017412 0.950785
vt 0.017393 0.950626
vt 0.017517 0.950275
vt 0.017500 0.950425
vt 0.018151 0.950251
vt 0.018187 0.950255
vn -0.2684 0.9583 0.0984
vn -0.3255 0.8437 -0.4270
vn -0.2223 0.6954 0.6834
vn 0.4286 0.9026 0.0399
vn -0.0840 0.0996 0.9915
vn -0.8302 0.1457 0.5381
vn -0.4529 0.8608 -0.2322
vn -0.9638 0.1904 -0.1867
vn -0.2092 -0.9130 -0.3504
vn 0.2060 -0.9784 0.0186
vn -0.1005 0.1111 0.9887
vn -0.1075 0.1192 0.9870
vn -0.7922 0.1694 0.5863
vn -0.7161 0.3532 0.6020
vn -0.7680 0.2375 0.5947
vn -0.5558 -0.0602 -0.8292
vn -0.4188 0.0608 -0.9060
vn -0.4467 -0.0260 -0.8943
vn -0.5303 -0.0817 -0.8439
vn -0.5787 -0.7506 0.3189
vn -0.1319 -0.8860 0.4446
vn -0.1047 -0.9900 0.0945
vn -0.1906 -0.9791 0.0707
vn -0.9359 0.0145 -0.3521
vn -0.9557 -0.0235 -0.2933
vn -0.9549 -0.0216 -0.2962
vn -0.8114 0.4541 -0.3679
vn -0.7882 0.5207 -0.3282
vn -0.7684 0.5041 -0.3942
vn -0.7780 0.4463 -0.4423
vn -0.3963 0.0041 -0.9181
vn -0.3349 0.1157 -0.9351
vn -0.3108 0.0876 0.9464
vn -0.2662 0.1013 0.9586
vn -0.3065 0.0889 0.9477
vn -0.7954 -0.1084 0.5963
vn -0.8023 -0.0342 0.5959
vn -0.8037 -0.0078 0.5949
vn -0.4455 -0.0758 -0.8921
vn -0.4737 -0.0930 -0.8758
vn -0.8046 0.0949 0.5862
vn -0.8045 0.1086 0.5840
vn -0.8303 0.4671 -0.3039
vn -0.7970 0.5284 -0.2925
vn -0.4981 -0.1080 -0.8603
vn -0.4181 -0.0625 0.9063
vn -0.3868 0.0041 0.9221
vn -0.3858 0.0061 0.9226
vn -0.9712 -0.0634 -0.2296
vn -0.8650 0.3901 -0.3157
vn -0.8215 0.3988 -0.4075
vn -0.7821 0.4027 -0.4755
vn -0.0744 -0.9804 -0.1825
vn -0.0793 -0.9752 -0.2066
vn -0.3782 0.2198 -0.8992
vn -0.3826 0.2272 -0.8955
vn -0.4303 0.3090 -0.8482
vn -0.0352 0.1949 -0.9802
vn -0.0857 0.3442 -0.9350
vn -0.0521 0.2452 -0.9681
vn 0.9988 0.0060 0.0483
vn 0.9692 0.1290 0.2099
vn 0.9796 0.0796 0.1845
vn 0.9973 0.0267 0.0684
vn -0.3503 0.8760 -0.3315
vn -0.1681 0.9802 -0.1048
vn -0.3332 0.8906 -0.3097
vn 0.8396 -0.5267 0.1331
vn 0.7967 -0.5842 0.1548
vn 0.8412 -0.5244 0.1323
vn 0.8159 0.1902 -0.5460
vn 0.7920 0.1058 -0.6012
vn 0.7930 0.1088 -0.5994
vn 0.7363 0.5246 -0.4274
vn 0.6915 0.5827 -0.4270
vn 0.7263 0.5685 -0.3864
vn 0.7690 0.5212 -0.3701
vn 0.9616 0.0966 0.2570
vn 0.9372 0.1865 0.2946
vn -0.3853 0.0896 -0.9184
vn -0.4243 0.0295 -0.9050
vn -0.3902 0.0822 -0.9171
vn -0.0193 0.0083 -0.9998
vn -0.0196 0.0432 -0.9989
vn -0.0197 0.0544 -0.9983
vn 0.9724 0.0402 0.2298
vn 0.9857 0.0458 0.1619
vn -0.0203 0.1155 -0.9931
vn -0.0205 0.1298 -0.9913
vn 0.7019 0.5358 -0.4693
vn 0.6722 0.5895 -0.4479
vn 0.9944 0.0513 0.0922
vn -0.3906 -0.0357 -0.9199
vn -0.3771 0.0628 -0.9241
vn -0.3836 0.0188 -0.9233
vn 0.7574 0.0151 -0.6528
vn 0.7340 0.4677 -0.4925
vn 0.7731 0.4777 -0.4173
vn 0.7997 0.4831 -0.3564
vn -0.3871 0.3434 0.8557
vn -0.9411 0.3151 -0.1230
vn -0.9253 0.3740 -0.0623
vn -0.5144 0.6149 0.5977
vn -0.4791 0.7021 -0.5268
vn -0.4975 0.6217 -0.6050
vn -0.4896 0.6610 -0.5687
vn 0.9221 0.2973 0.2477
vn 0.9226 0.2942 0.2496
vn 0.9022 0.3884 0.1874
vn -0.8736 -0.3237 0.3633
vn -0.5138 -0.8462 0.1415
vn -0.8497 -0.4997 0.1681
vn -0.9549 -0.1034 0.2782
vn -0.5339 0.6830 0.4985
vn -0.9079 0.2206 0.3566
vn -0.9065 0.2203 0.3602
vn -0.6387 0.5944 0.4886
vn -0.1631 -0.4538 0.8761
vn -0.1542 -0.4462 0.8816
vn -0.2245 -0.5047 0.8336
vn -0.3038 0.3940 0.8674
vn -0.2881 0.3936 0.8730
vn -0.3542 0.3889 0.8504
vn -0.3692 0.3875 0.8447
vn 0.0452 -0.9981 0.0424
vn 0.2086 -0.9771 -0.0424
vn 0.0952 -0.9955 0.0027
vn 0.7641 -0.1003 0.6373
vn 0.8388 0.0239 0.5439
vn 0.8142 -0.0217 0.5802
vn -0.2047 0.8485 0.4879
vn -0.2182 0.8413 0.4946
vn 0.8787 0.1170 0.4628
vn 0.5679 0.7232 0.3931
vn 0.5282 0.7450 0.4074
vn 0.5680 0.7231 0.3931
vn -0.0919 -0.9903 0.1041
vn -0.0799 -0.9929 0.0884
vn -0.0979 -0.9897 0.1048
vn -0.0308 0.3657 0.9302
vn -0.0264 0.3654 0.9305
vn -0.1510 0.3839 0.9109
vn -0.1644 0.3886 0.9066
vn -0.0446 -0.2528 0.9665
vn -0.0361 -0.2404 0.9700
vn -0.0848 -0.3367 0.9378
vn -0.0885 -0.3500 0.9326
vn -0.1549 -0.9817 0.1110
vn -0.2418 0.8279 0.5061
vn -0.7585 0.4166 0.5012
vn -0.5361 0.7489 0.3895
vn -0.4000 0.8349 0.3780
vn -0.1205 0.9680 0.2203
vn -0.2523 0.9335 0.2547
vn -0.0123 0.9913 0.1312
vn 0.1677 0.0796 -0.9826
vn 0.1428 0.1369 -0.9802
vn 0.1294 0.1672 -0.9774
vn 0.1038 0.2234 -0.9692
vn -0.0110 -0.2039 0.9789
vn 0.0397 0.3606 0.9319
vn 0.5959 0.7063 0.3822
vn 0.4476 0.2071 0.8699
vn 0.4223 0.1933 0.8856
vn 0.3979 0.1800 0.8996
vn 0.3833 0.2857 0.8783
vn 0.0867 0.3770 0.9222
vn 0.3682 0.3990 0.8398
vn 0.0151 0.3783 0.9256
vn 0.0753 0.2969 -0.9520
vn -0.3368 0.4102 -0.8475
vn -0.3163 0.4062 -0.8573
vn -0.7599 0.4381 -0.4802
vn -0.3322 0.3408 0.8795
vn -0.3569 0.2878 0.8887
vn 0.1935 0.1331 -0.9720
vn -0.0051 0.2408 -0.9706
vn -0.0506 0.3290 -0.9430
vn 0.2342 0.2044 -0.9505
vn 0.7434 -0.1290 -0.6562
vn 0.7271 0.1426 -0.6716
vn 0.9364 -0.1066 -0.3344
vn 0.8082 -0.0866 -0.5825
vn 0.9428 0.0533 -0.3290
vn 0.1137 0.3741 -0.9204
vn 0.6392 0.3681 -0.6752
vn 0.3657 0.3831 0.8483
vn -0.0014 0.3400 0.9404
vn -0.0871 0.3981 -0.9132
vn -0.3756 0.2452 0.8937
vn 0.8979 0.3219 -0.3002
vn -0.1022 0.9930 0.0591
vn -0.3073 0.9514 -0.0189
vn -0.3184 0.9477 -0.0233
vn -0.4761 0.8750 -0.0872
vn -0.5100 -0.8531 0.1103
vn -0.0571 -0.9685 -0.2424
vn 0.4437 -0.4736 -0.7609
vn 0.8707 -0.4734 -0.1329
vn 0.8699 -0.4733 -0.1390
vn 0.4216 -0.4710 -0.7749
vn -0.8913 -0.2285 -0.3917
vn -0.2178 -0.4435 -0.8694
vn -0.8797 -0.2441 -0.4081
vn -0.0051 -0.9643 -0.2647
vn 0.1041 -0.9918 0.0739
vn -0.0450 -0.9990 0.0070
vn -0.1370 -0.9900 -0.0347
vn -0.2801 -0.9547 -0.1002
vn -0.2594 0.1168 0.9587
vn -0.9209 0.2110 0.3276
vn -0.2790 0.3935 0.8760
vn -0.3421 0.3900 0.8549
usemtl Atlas
s off
f 6/1/1 25/2/1 24/3/1 8/4/1
f 7/5/2 24/3/2 25/2/2 4/6/2
f 8/4/3 31/7/3 5/8/3 6/1/3
f 35/9/4 50/10/4 51/11/4 33/12/4
f 18/13/5 13/14/5 104/15/5 105/16/5
f 25/17/6 75/18/6 89/19/6 84/20/6
f 83/21/7 84/22/7 89/23/7 90/24/7
f 90/25/8 89/26/8 95/27/8 96/28/8
f 102/29/9 98/30/9 99/31/9 82/32/9
f 82/32/10 99/31/10 100/33/10 101/34/10 97/35/10
f 104/15/11 13/14/11 2/36/11
f 105/16/12 59/37/12 5/38/12 18/13/12
s 1
f 31/39/13 8/40/14 29/41/15
f 26/42/16 15/43/17 22/44/18 23/45/19
f 2/46/20 9/47/21 10/48/22 3/49/23
f 10/50/24 11/51/25 23/52/26 20/53/24
f 30/54/27 24/55/28 7/56/29 27/57/30
f 14/58/31 22/44/18 15/43/17 16/59/32
f 18/13/33 5/38/34 31/39/34 19/60/35
f 9/61/36 12/62/37 11/63/38 10/64/36
f 1/65/39 21/66/40 22/44/18 14/58/31
f 12/62/37 19/60/41 17/67/42 11/63/38
f 29/68/43 8/69/44 24/55/28 30/54/27
f 20/70/45 23/45/19 22/44/18 21/66/40
f 2/36/46 13/14/47 12/62/48 9/61/46
f 11/51/25 17/71/49 26/72/49 23/52/26
f 17/71/50 29/68/43 30/54/27 26/72/51
f 13/14/47 18/13/33 19/60/35 12/62/48
f 26/72/51 30/54/27 27/57/30 15/73/52
f 19/60/41 31/39/13 29/41/15 17/67/42
f 3/49/23 10/48/22 20/74/53 21/75/53 1/76/54
f 28/77/55 16/59/32 15/43/17 27/78/56
f 4/79/57 28/77/55 27/78/56 7/80/57
f 57/81/58 76/82/59 36/83/59 55/84/60
f 52/85/61 42/86/62 48/87/63 49/88/64
f 34/89/65 51/11/66 50/10/66 36/90/67
f 47/91/68 32/92/69 97/93/69 101/94/70
f 38/95/71 39/96/72 49/88/73 46/97/71
f 56/98/74 50/99/75 35/100/76 53/101/77
f 41/102/78 48/87/63 42/86/62 43/103/79
f 16/59/80 57/81/81 45/104/82
f 37/105/83 40/106/84 39/107/85 38/108/83
f 32/92/86 47/91/87 48/87/63 41/102/78
f 40/106/84 45/104/88 44/109/89 39/107/85
f 55/110/90 36/111/91 50/99/75 56/98/74
f 46/97/92 49/88/64 48/87/63 47/91/87
f 1/65/93 14/58/94 40/106/95 37/105/93
f 39/96/72 44/112/96 52/85/96 49/88/73
f 44/112/97 55/110/90 56/98/74 52/85/98
f 14/58/94 16/59/80 45/104/82 40/106/95
f 52/85/98 56/98/74 53/101/77 42/86/99
f 45/104/88 57/81/58 55/84/60 44/109/89
f 66/113/100 1/114/101 102/115/102 103/116/103
f 76/117/104 57/118/105 16/119/105 77/120/106
f 54/121/107 43/103/79 42/86/62 53/101/108
f 33/122/109 54/121/107 53/101/108 35/100/109
f 2/123/110 58/124/111 60/125/112 62/126/113
f 59/127/114 105/128/115 107/129/116 64/130/117
f 73/131/118 72/132/119 62/133/120 60/134/120
f 72/132/121 106/135/122 107/136/123 62/133/124
f 66/137/125 32/138/126 61/139/126 78/140/127
f 32/92/128 41/102/129 63/141/130 61/142/128
f 75/143/131 59/144/114 64/145/117 74/146/132
f 41/102/129 43/103/133 65/147/133 63/141/130
f 79/148/134 67/149/135 70/150/135 80/151/136
f 71/152/137 66/137/125 68/153/138 73/154/139
f 81/155/140 80/156/141 70/157/142 69/158/143
f 78/159/144 81/155/145 69/158/146 68/160/147
f 58/161/148 71/152/137 73/154/139 60/162/148
f 67/149/149 75/143/131 74/146/132 70/150/149
f 69/158/143 106/135/122 72/132/121
f 68/160/147 69/158/146 72/132/119 73/131/118
f 5/38/150 59/37/151 6/163/152
f 6/1/153 59/144/154 75/143/155 25/2/155
f 36/164/67 76/117/104 77/120/106 34/165/65
f 16/59/156 28/77/157 77/166/158
f 4/79/159 77/166/158 28/77/157
f 61/167/160 63/168/160 81/155/145 78/159/144
f 63/168/161 65/169/161 80/156/141 81/155/140
f 43/103/162 79/170/134 80/171/136 65/147/162
f 66/137/125 78/140/127 68/153/138
f 43/172/163 54/173/164 79/174/165
f 33/175/166 67/176/167 79/174/165 54/173/164
f 67/176/167 33/175/166 85/177/168 88/178/169
f 77/166/170 4/79/171 83/179/172 90/180/170
f 4/181/171 25/182/173 84/183/173 83/184/172
f 75/18/174 67/176/167 88/178/169 89/19/175
f 34/185/176 77/166/177 90/180/178 86/186/179
f 51/187/180 34/185/176 86/186/179 87/188/181
f 33/189/182 51/190/183 87/191/181 85/192/184
f 87/188/181 86/186/179 92/193/185 93/194/186
f 88/178/169 85/177/168 91/195/187 94/196/188
f 86/186/179 90/180/178 96/197/189 92/193/185
f 89/19/175 88/178/169 94/196/188 95/198/190
f 85/192/184 87/191/181 93/199/186 91/200/191
f 91/201/192 93/202/192 92/203/193 94/204/194
f 95/205/195 94/204/194 92/203/193 96/206/195
f 3/49/23 58/161/196 2/46/20
f 3/49/23 1/76/54 71/152/197 58/161/196
f 38/95/198 46/97/199 100/207/200 99/208/201
f 1/65/202 37/105/203 98/209/203 102/210/204
f 71/152/197 1/76/54 66/137/205
f 97/35/206 103/211/207 82/32/208
f 82/32/208 103/211/207 102/29/209
f 32/212/210 66/213/100 103/214/103 97/215/210
f 37/105/203 38/108/198 99/216/201 98/209/203
f 46/97/199 47/91/68 101/94/70 100/207/200
f 62/126/113 104/217/211 2/123/110
f 107/136/123 106/135/122 74/218/212 64/219/213
f 106/135/122 69/158/143 70/157/142 74/218/212
f 107/129/116 105/128/115 104/217/211 62/126/113
