# Blender v2.79 (sub 0) OBJ File: 'SolarPanel_Ground.blend'
# www.blender.org
mtllib SolarPanel_Ground.mtl
o SolarPanel_Ground_Cube.017
v -0.625133 -0.005263 0.833066
v -0.625133 0.080281 0.886642
v -0.625133 1.005004 -0.780019
v -0.625133 1.090548 -0.726443
v 0.625133 -0.005263 0.833066
v 0.625133 0.080281 0.886642
v 0.625133 1.005004 -0.780019
v 0.625133 1.090548 -0.726443
v -0.573494 0.106797 0.844303
v -0.573494 1.064031 -0.684105
v 0.573494 1.064031 -0.684105
v 0.573494 0.106797 0.844303
v -0.573494 0.094265 0.836455
v -0.573494 1.051499 -0.691953
v 0.573494 1.051499 -0.691953
v 0.573494 0.094265 0.836455
v -0.582516 0.087628 0.846969
v -0.193327 0.087628 0.846969
v 0.195733 0.087649 0.846935
v 0.584836 0.087649 0.846935
v -0.582516 0.281910 0.536761
v -0.236256 0.275322 0.547279
v -0.207677 0.260153 0.571500
v -0.189040 0.284749 0.532228
v -0.550679 0.260153 0.571500
v -0.522101 0.275322 0.547279
v -0.522101 0.101828 0.824295
v -0.550679 0.116997 0.800075
v -0.207677 0.116997 0.800075
v -0.236256 0.101828 0.824295
v 0.191362 0.284770 0.532194
v 0.144104 0.275322 0.547279
v 0.172683 0.260153 0.571500
v -0.170319 0.260153 0.571500
v -0.141741 0.275322 0.547279
v -0.141741 0.101828 0.824295
v -0.170319 0.116997 0.800075
v 0.172683 0.116997 0.800075
v 0.144104 0.101828 0.824295
v 0.524464 0.275322 0.547279
v 0.553043 0.260153 0.571500
v 0.210041 0.260153 0.571500
v 0.238619 0.275322 0.547279
v 0.238619 0.101828 0.824295
v 0.210041 0.116997 0.800075
v 0.553043 0.116997 0.800075
v 0.524464 0.101828 0.824295
v 0.584879 0.281910 0.536761
v -0.582516 0.476192 0.226552
v -0.236256 0.467711 0.240093
v -0.207677 0.452542 0.264313
v -0.550679 0.452542 0.264313
v -0.522101 0.467711 0.240093
v -0.522101 0.294218 0.517109
v -0.550679 0.309387 0.492888
v -0.207677 0.309387 0.492888
v -0.236256 0.294218 0.517109
v -0.188998 0.477159 0.225008
v 0.144104 0.467711 0.240093
v 0.172683 0.452542 0.264313
v -0.170319 0.452542 0.264313
v -0.141741 0.467711 0.240093
v -0.141741 0.294218 0.517109
v -0.170319 0.309387 0.492888
v 0.172683 0.309387 0.492888
v 0.144104 0.294218 0.517109
v 0.191362 0.477159 0.225008
v 0.524464 0.467711 0.240093
v 0.553043 0.452542 0.264313
v 0.584794 0.476192 0.226552
v 0.210041 0.452542 0.264313
v 0.238619 0.467711 0.240093
v 0.238619 0.294218 0.517109
v 0.210041 0.309387 0.492888
v 0.553043 0.309387 0.492888
v 0.524464 0.294218 0.517109
v -0.582473 0.670495 -0.083690
v -0.188998 0.669548 -0.082179
v -0.236256 0.660100 -0.067093
v -0.207677 0.644931 -0.042873
v -0.550679 0.644931 -0.042873
v -0.522101 0.660100 -0.067093
v -0.522101 0.486607 0.209922
v -0.550679 0.501776 0.185702
v -0.207677 0.501776 0.185702
v -0.236256 0.486607 0.209922
v 0.144104 0.660100 -0.067093
v 0.172683 0.644931 -0.042873
v -0.170319 0.644931 -0.042873
v -0.141741 0.660100 -0.067093
v -0.141741 0.486607 0.209922
v -0.170319 0.501776 0.185702
v 0.172683 0.501776 0.185702
v 0.144104 0.486607 0.209922
v 0.191362 0.669548 -0.082179
v 0.524464 0.660100 -0.067093
v 0.553043 0.644931 -0.042873
v 0.210041 0.644931 -0.042873
v 0.238619 0.660100 -0.067093
v 0.238619 0.486607 0.209922
v 0.210041 0.501776 0.185702
v 0.553043 0.501776 0.185702
v 0.524464 0.486607 0.209922
v 0.584879 0.670474 -0.083656
v -0.236256 0.852490 -0.374280
v -0.207677 0.837320 -0.350059
v -0.550679 0.837320 -0.350059
v -0.522101 0.852490 -0.374280
v -0.582431 0.864756 -0.393865
v -0.522101 0.678996 -0.097264
v -0.550679 0.694165 -0.121485
v -0.207677 0.694165 -0.121485
v -0.236256 0.678996 -0.097264
v 0.191362 0.861937 -0.389365
v 0.144104 0.852490 -0.374280
v 0.172683 0.837320 -0.350059
v -0.170319 0.837320 -0.350059
v -0.141741 0.852490 -0.374280
v -0.188957 0.861917 -0.389332
v -0.141741 0.678996 -0.097264
v -0.170319 0.694165 -0.121485
v 0.172683 0.694165 -0.121485
v 0.144104 0.678996 -0.097264
v 0.524464 0.852490 -0.374280
v 0.553043 0.837320 -0.350059
v 0.210041 0.837320 -0.350059
v 0.238619 0.852490 -0.374280
v 0.238619 0.678996 -0.097264
v 0.210041 0.694165 -0.121485
v 0.553043 0.694165 -0.121485
v 0.524464 0.678996 -0.097264
v 0.584836 0.864777 -0.393899
v -0.582473 1.059059 -0.704107
v -0.236256 1.044879 -0.681466
v -0.207677 1.029710 -0.657246
v -0.550679 1.029710 -0.657246
v -0.522101 1.044879 -0.681466
v -0.522101 0.871385 -0.404451
v -0.550679 0.886554 -0.428671
v -0.207677 0.886554 -0.428671
v -0.236256 0.871385 -0.404451
v 0.144104 1.044879 -0.681466
v 0.172683 1.029710 -0.657246
v 0.195691 1.059037 -0.704073
v -0.170319 1.029710 -0.657246
v -0.141741 1.044879 -0.681466
v -0.193327 1.059037 -0.704073
v -0.141741 0.871385 -0.404451
v -0.170319 0.886554 -0.428671
v 0.172683 0.886554 -0.428671
v 0.144104 0.871385 -0.404451
v 0.524464 1.044879 -0.681466
v 0.553043 1.029710 -0.657246
v 0.210041 1.029710 -0.657246
v 0.238619 1.044879 -0.681466
v 0.238619 0.871385 -0.404451
v 0.210041 0.886554 -0.428671
v 0.553043 0.886554 -0.428671
v 0.524464 0.871385 -0.404451
v 0.584879 1.059037 -0.704073
v 0.609616 0.040932 -0.646676
v 0.609616 0.040288 -0.561244
v 0.609616 0.961777 -0.646676
v 0.609616 0.961133 -0.561244
v 0.571486 0.961133 -0.561244
v 0.571486 0.961777 -0.646676
v 0.571486 0.040932 -0.646676
v 0.571486 0.040288 -0.561244
v 0.644476 0.025567 -0.738105
v 0.644476 -0.002809 -0.738181
v 0.644476 0.026861 -0.467596
v 0.644476 -0.001515 -0.467672
v 0.536626 -0.001515 -0.467672
v 0.536626 0.026861 -0.467596
v 0.536626 0.025567 -0.738105
v 0.536626 -0.002809 -0.738181
v 0.644476 0.057404 -0.648086
v 0.644476 0.057836 -0.557916
v 0.644476 -0.001946 -0.557842
v 0.644476 -0.002378 -0.648011
v 0.536626 0.057404 -0.648086
v 0.536626 0.057836 -0.557916
v 0.536626 -0.001946 -0.557842
v 0.536626 -0.002378 -0.648011
v -0.609616 0.040932 -0.646676
v -0.609616 0.040288 -0.561244
v -0.609616 0.961777 -0.646676
v -0.609616 0.961133 -0.561244
v -0.571486 0.961133 -0.561244
v -0.571486 0.961777 -0.646676
v -0.571486 0.040932 -0.646676
v -0.571486 0.040288 -0.561244
v -0.644476 0.025567 -0.738105
v -0.644476 -0.002809 -0.738181
v -0.644476 0.026861 -0.467596
v -0.644476 -0.001515 -0.467672
v -0.536626 -0.001515 -0.467672
v -0.536626 0.026861 -0.467596
v -0.536626 0.025567 -0.738105
v -0.536626 -0.002809 -0.738181
v -0.644476 0.057404 -0.648086
v -0.644476 0.057836 -0.557916
v -0.644476 -0.001946 -0.557842
v -0.644476 -0.002378 -0.648011
v -0.536626 0.057404 -0.648086
v -0.536626 0.057836 -0.557916
v -0.536626 -0.001946 -0.557842
v -0.536626 -0.002378 -0.648011
vt 0.010825 0.983352
vt 0.010860 0.983352
vt 0.010860 0.983889
vt 0.010825 0.983889
vt 0.010893 0.983705
vt 0.010860 0.983705
vt 0.010860 0.983352
vt 0.010893 0.983352
vt 0.010789 0.983352
vt 0.010825 0.983352
vt 0.010825 0.983889
vt 0.010789 0.983889
vt 0.010789 0.983823
vt 0.010789 0.983836
vt 0.010349 0.983836
vt 0.010349 0.983823
vt 0.010349 0.983352
vt 0.010349 0.983352
vt 0.010349 0.983888
vt 0.010331 0.983874
vt 0.010331 0.983366
vt 0.010904 0.983352
vt 0.010904 0.983860
vt 0.010899 0.983860
vt 0.010899 0.983352
vt 0.009909 0.983888
vt 0.009927 0.983874
vt 0.009909 0.983352
vt 0.009927 0.983366
vt 0.010893 0.983860
vt 0.010893 0.983352
vt 0.010899 0.983352
vt 0.010899 0.983860
vt 0.010904 0.983675
vt 0.010909 0.983675
vt 0.010893 0.983705
vt 0.010893 0.984028
vt 0.010890 0.984028
vt 0.010890 0.983705
vt 0.143302 0.985024
vt 0.143280 0.985027
vt 0.143180 0.985027
vt 0.143163 0.985022
vt 0.143170 0.985036
vt 0.143170 0.985112
vt 0.143165 0.985127
vt 0.143302 0.985127
vt 0.143290 0.985112
vt 0.143290 0.985036
vt 0.143180 0.985120
vt 0.143280 0.985120
vt 0.143146 0.985027
vt 0.143046 0.985027
vt 0.143029 0.985022
vt 0.143036 0.985036
vt 0.143036 0.985112
vt 0.143028 0.985127
vt 0.143157 0.985112
vt 0.143157 0.985036
vt 0.143046 0.985120
vt 0.143146 0.985120
vt 0.143013 0.985027
vt 0.142912 0.985027
vt 0.142891 0.985024
vt 0.142902 0.985036
vt 0.142902 0.985112
vt 0.142891 0.985127
vt 0.143023 0.985112
vt 0.143023 0.985036
vt 0.142912 0.985120
vt 0.143013 0.985120
vt 0.143302 0.984921
vt 0.143280 0.984925
vt 0.143180 0.984925
vt 0.143163 0.984920
vt 0.143170 0.984933
vt 0.143170 0.985009
vt 0.143290 0.985009
vt 0.143290 0.984933
vt 0.143180 0.985017
vt 0.143280 0.985017
vt 0.143146 0.984925
vt 0.143046 0.984925
vt 0.143029 0.984920
vt 0.143036 0.984933
vt 0.143036 0.985009
vt 0.143157 0.985009
vt 0.143157 0.984933
vt 0.143046 0.985017
vt 0.143146 0.985017
vt 0.143013 0.984925
vt 0.142912 0.984925
vt 0.142891 0.984921
vt 0.142902 0.984933
vt 0.142902 0.985009
vt 0.143023 0.985009
vt 0.143023 0.984933
vt 0.142912 0.985017
vt 0.143013 0.985017
vt 0.143302 0.984818
vt 0.143280 0.984823
vt 0.143180 0.984823
vt 0.143163 0.984818
vt 0.143170 0.984831
vt 0.143170 0.984907
vt 0.143290 0.984907
vt 0.143290 0.984831
vt 0.143180 0.984915
vt 0.143280 0.984915
vt 0.143146 0.984823
vt 0.143046 0.984823
vt 0.143029 0.984818
vt 0.143036 0.984831
vt 0.143036 0.984907
vt 0.143157 0.984907
vt 0.143157 0.984831
vt 0.143046 0.984915
vt 0.143146 0.984915
vt 0.143013 0.984823
vt 0.142912 0.984823
vt 0.142891 0.984818
vt 0.142902 0.984831
vt 0.142902 0.984907
vt 0.143023 0.984907
vt 0.143023 0.984831
vt 0.142912 0.984915
vt 0.143013 0.984915
vt 0.143302 0.984715
vt 0.143280 0.984721
vt 0.143180 0.984721
vt 0.143163 0.984716
vt 0.143170 0.984729
vt 0.143170 0.984805
vt 0.143290 0.984805
vt 0.143290 0.984729
vt 0.143180 0.984813
vt 0.143280 0.984813
vt 0.143146 0.984721
vt 0.143046 0.984721
vt 0.143029 0.984716
vt 0.143036 0.984729
vt 0.143036 0.984805
vt 0.143157 0.984805
vt 0.143157 0.984729
vt 0.143046 0.984813
vt 0.143146 0.984813
vt 0.143013 0.984721
vt 0.142912 0.984721
vt 0.142891 0.984715
vt 0.142902 0.984729
vt 0.142902 0.984805
vt 0.143023 0.984805
vt 0.143023 0.984729
vt 0.142912 0.984813
vt 0.143013 0.984813
vt 0.143302 0.984611
vt 0.143280 0.984619
vt 0.143180 0.984619
vt 0.143165 0.984611
vt 0.143170 0.984627
vt 0.143170 0.984703
vt 0.143290 0.984703
vt 0.143290 0.984627
vt 0.143180 0.984711
vt 0.143280 0.984711
vt 0.143146 0.984619
vt 0.143046 0.984619
vt 0.143028 0.984611
vt 0.143036 0.984627
vt 0.143036 0.984703
vt 0.143157 0.984703
vt 0.143157 0.984627
vt 0.143046 0.984711
vt 0.143146 0.984711
vt 0.143013 0.984619
vt 0.142912 0.984619
vt 0.142891 0.984611
vt 0.142902 0.984627
vt 0.142902 0.984703
vt 0.143023 0.984703
vt 0.143023 0.984627
vt 0.142912 0.984711
vt 0.143013 0.984711
vt 0.202862 0.985803
vt 0.202963 0.985803
vt 0.202973 0.985811
vt 0.202973 0.985887
vt 0.202963 0.985895
vt 0.202862 0.985895
vt 0.202852 0.985887
vt 0.202852 0.985811
vt 0.202728 0.985803
vt 0.202829 0.985803
vt 0.202839 0.985811
vt 0.202839 0.985887
vt 0.202829 0.985895
vt 0.202728 0.985895
vt 0.202718 0.985887
vt 0.202718 0.985811
vt 0.202594 0.985803
vt 0.202695 0.985803
vt 0.202705 0.985811
vt 0.202705 0.985887
vt 0.202695 0.985895
vt 0.202594 0.985895
vt 0.202584 0.985887
vt 0.202584 0.985811
vt 0.202862 0.985700
vt 0.202963 0.985700
vt 0.202973 0.985709
vt 0.202973 0.985784
vt 0.202963 0.985793
vt 0.202862 0.985793
vt 0.202852 0.985784
vt 0.202852 0.985709
vt 0.202728 0.985700
vt 0.202829 0.985700
vt 0.202839 0.985709
vt 0.202839 0.985784
vt 0.202829 0.985793
vt 0.202728 0.985793
vt 0.202718 0.985784
vt 0.202718 0.985709
vt 0.202594 0.985700
vt 0.202695 0.985700
vt 0.202705 0.985709
vt 0.202705 0.985784
vt 0.202695 0.985793
vt 0.202594 0.985793
vt 0.202584 0.985784
vt 0.202584 0.985709
vt 0.202862 0.985598
vt 0.202963 0.985598
vt 0.202973 0.985606
vt 0.202973 0.985682
vt 0.202963 0.985690
vt 0.202862 0.985690
vt 0.202852 0.985682
vt 0.202852 0.985606
vt 0.202728 0.985598
vt 0.202829 0.985598
vt 0.202839 0.985606
vt 0.202839 0.985682
vt 0.202829 0.985690
vt 0.202728 0.985690
vt 0.202718 0.985682
vt 0.202718 0.985606
vt 0.202594 0.985598
vt 0.202695 0.985598
vt 0.202705 0.985606
vt 0.202705 0.985682
vt 0.202695 0.985690
vt 0.202594 0.985690
vt 0.202584 0.985682
vt 0.202584 0.985606
vt 0.202862 0.985496
vt 0.202963 0.985496
vt 0.202973 0.985504
vt 0.202973 0.985580
vt 0.202963 0.985588
vt 0.202862 0.985588
vt 0.202852 0.985580
vt 0.202852 0.985504
vt 0.202728 0.985496
vt 0.202829 0.985496
vt 0.202839 0.985504
vt 0.202839 0.985580
vt 0.202829 0.985588
vt 0.202728 0.985588
vt 0.202718 0.985580
vt 0.202718 0.985504
vt 0.202594 0.985496
vt 0.202695 0.985496
vt 0.202705 0.985504
vt 0.202705 0.985580
vt 0.202695 0.985588
vt 0.202594 0.985588
vt 0.202584 0.985580
vt 0.202584 0.985504
vt 0.202862 0.985394
vt 0.202963 0.985394
vt 0.202973 0.985402
vt 0.202973 0.985478
vt 0.202963 0.985486
vt 0.202862 0.985486
vt 0.202852 0.985478
vt 0.202852 0.985402
vt 0.202728 0.985394
vt 0.202829 0.985394
vt 0.202839 0.985402
vt 0.202839 0.985478
vt 0.202829 0.985486
vt 0.202728 0.985486
vt 0.202718 0.985478
vt 0.202718 0.985402
vt 0.202594 0.985394
vt 0.202695 0.985394
vt 0.202705 0.985402
vt 0.202705 0.985478
vt 0.202695 0.985486
vt 0.202594 0.985486
vt 0.202584 0.985478
vt 0.202584 0.985402
vt 0.009999 0.984148
vt 0.009969 0.984148
vt 0.009969 0.983888
vt 0.009999 0.983889
vt 0.009909 0.984148
vt 0.009909 0.983889
vt 0.009939 0.983888
vt 0.009939 0.984148
vt 0.010289 0.983913
vt 0.010275 0.983913
vt 0.010275 0.983888
vt 0.010289 0.983888
vt 0.010773 0.983836
vt 0.010787 0.983836
vt 0.010787 0.984091
vt 0.010773 0.984091
vt 0.010178 0.984021
vt 0.010164 0.984021
vt 0.010164 0.983888
vt 0.010178 0.983888
vt 0.010241 0.983939
vt 0.010262 0.983939
vt 0.010262 0.983965
vt 0.010252 0.983965
vt 0.010199 0.983914
vt 0.010210 0.983889
vt 0.010220 0.983888
vt 0.010220 0.983914
vt 0.010308 0.983888
vt 0.010308 0.983919
vt 0.010298 0.983919
vt 0.010298 0.983888
vt 0.010113 0.983927
vt 0.010151 0.983927
vt 0.010151 0.983954
vt 0.010113 0.983954
vt 0.009999 0.983939
vt 0.010037 0.983939
vt 0.010037 0.983965
vt 0.009999 0.983965
vt 0.009999 0.983888
vt 0.010037 0.983888
vt 0.010037 0.983914
vt 0.009999 0.983914
vt 0.010113 0.983888
vt 0.010113 0.983906
vt 0.010220 0.983939
vt 0.010220 0.983965
vt 0.010252 0.983888
vt 0.010262 0.983889
vt 0.010262 0.983914
vt 0.010241 0.983914
vt 0.010860 0.983964
vt 0.010860 0.983705
vt 0.010890 0.983705
vt 0.010890 0.983964
vt 0.009939 0.983888
vt 0.009969 0.983889
vt 0.009969 0.984148
vt 0.009939 0.984148
vt 0.010262 0.983913
vt 0.010262 0.983888
vt 0.010275 0.983888
vt 0.010275 0.983913
vt 0.010773 0.983836
vt 0.010773 0.984091
vt 0.010760 0.984091
vt 0.010760 0.983836
vt 0.010164 0.983888
vt 0.010164 0.984021
vt 0.010151 0.984021
vt 0.010151 0.983888
vt 0.010220 0.983914
vt 0.010231 0.983889
vt 0.010241 0.983888
vt 0.010241 0.983914
vt 0.010178 0.983939
vt 0.010199 0.983939
vt 0.010199 0.983965
vt 0.010189 0.983965
vt 0.010298 0.983919
vt 0.010289 0.983919
vt 0.010289 0.983888
vt 0.010298 0.983888
vt 0.010113 0.983927
vt 0.010113 0.983954
vt 0.010075 0.983954
vt 0.010075 0.983927
vt 0.010037 0.983914
vt 0.010037 0.983888
vt 0.010075 0.983888
vt 0.010075 0.983914
vt 0.010037 0.983965
vt 0.010037 0.983939
vt 0.010075 0.983939
vt 0.010075 0.983965
vt 0.010113 0.983888
vt 0.010113 0.983906
vt 0.010075 0.983906
vt 0.010075 0.983888
vt 0.010189 0.983888
vt 0.010199 0.983889
vt 0.010199 0.983914
vt 0.010178 0.983914
vt 0.010231 0.983965
vt 0.010220 0.983939
vt 0.010241 0.983939
vt 0.010241 0.983965
vt 0.010113 0.983958
vt 0.010113 0.983958
vn -1.0000 0.0000 0.0000
vn 0.0000 0.5308 -0.8475
vn 1.0000 0.0000 0.0000
vn 0.0000 -0.5308 0.8475
vn 0.0000 -0.8475 -0.5308
vn 0.0000 0.8475 0.5308
vn 0.0000 -1.0000 -0.0075
vn 0.0000 0.0000 -1.0000
vn 0.0000 0.0000 1.0000
vn 0.0000 0.0027 -1.0000
vn 0.0000 0.9459 0.3244
vn 0.0000 -1.0000 0.0048
vn 0.0000 0.9428 -0.3334
vn 0.0000 1.0000 -0.0048
vn 0.0000 -0.0027 1.0000
usemtl Atlas
s off
f 1/1/1 2/2/1 4/3/1 3/4/1
f 3/5/2 4/6/2 8/7/2 7/8/2
f 7/9/3 8/10/3 6/11/3 5/12/3
f 5/13/4 6/14/4 2/15/4 1/16/4
f 3/17/5 7/9/5 5/13/5 1/16/5
f 4/18/6 2/19/6 9/20/6 10/21/6
f 12/22/1 11/23/1 15/24/1 16/25/1
f 2/19/6 6/26/6 12/27/6 9/20/6
f 8/28/6 4/18/6 10/21/6 11/29/6
f 6/26/6 8/28/6 11/29/6 12/27/6
f 10/30/3 9/31/3 13/32/3 14/33/3
f 9/34/2 12/22/2 16/25/2 13/35/2
f 11/36/4 10/37/4 14/38/4 15/39/4
f 21/40/6 26/41/6 22/42/6 24/43/6
f 24/43/6 23/44/6 29/45/6 18/46/6
f 17/47/6 28/48/6 25/49/6 21/40/6
f 18/46/6 30/50/6 27/51/6 17/47/6
f 22/42/6 23/44/6 24/43/6
f 25/49/6 26/41/6 21/40/6
f 27/51/6 28/48/6 17/47/6
f 29/45/6 30/50/6 18/46/6
f 24/43/6 35/52/6 32/53/6 31/54/6
f 31/54/6 33/55/6 38/56/6 19/57/6
f 18/46/6 37/58/6 34/59/6 24/43/6
f 19/57/6 39/60/6 36/61/6 18/46/6
f 32/53/6 33/55/6 31/54/6
f 34/59/6 35/52/6 24/43/6
f 36/61/6 37/58/6 18/46/6
f 38/56/6 39/60/6 19/57/6
f 31/54/6 43/62/6 40/63/6 48/64/6
f 48/64/6 41/65/6 46/66/6 20/67/6
f 19/57/6 45/68/6 42/69/6 31/54/6
f 20/67/6 47/70/6 44/71/6 19/57/6
f 40/63/6 41/65/6 48/64/6
f 42/69/6 43/62/6 31/54/6
f 44/71/6 45/68/6 19/57/6
f 46/66/6 47/70/6 20/67/6
f 49/72/6 53/73/6 50/74/6 58/75/6
f 58/75/6 51/76/6 56/77/6 24/43/6
f 21/40/6 55/78/6 52/79/6 49/72/6
f 24/43/6 57/80/6 54/81/6 21/40/6
f 50/74/6 51/76/6 58/75/6
f 52/79/6 53/73/6 49/72/6
f 54/81/6 55/78/6 21/40/6
f 56/77/6 57/80/6 24/43/6
f 58/75/6 62/82/6 59/83/6 67/84/6
f 67/84/6 60/85/6 65/86/6 31/54/6
f 24/43/6 64/87/6 61/88/6 58/75/6
f 31/54/6 66/89/6 63/90/6 24/43/6
f 59/83/6 60/85/6 67/84/6
f 61/88/6 62/82/6 58/75/6
f 63/90/6 64/87/6 24/43/6
f 65/86/6 66/89/6 31/54/6
f 67/84/6 72/91/6 68/92/6 70/93/6
f 70/93/6 69/94/6 75/95/6 48/64/6
f 31/54/6 74/96/6 71/97/6 67/84/6
f 48/64/6 76/98/6 73/99/6 31/54/6
f 68/92/6 69/94/6 70/93/6
f 71/97/6 72/91/6 67/84/6
f 73/99/6 74/96/6 31/54/6
f 75/95/6 76/98/6 48/64/6
f 77/100/6 82/101/6 79/102/6 78/103/6
f 78/103/6 80/104/6 85/105/6 58/75/6
f 49/72/6 84/106/6 81/107/6 77/100/6
f 58/75/6 86/108/6 83/109/6 49/72/6
f 79/102/6 80/104/6 78/103/6
f 81/107/6 82/101/6 77/100/6
f 83/109/6 84/106/6 49/72/6
f 85/105/6 86/108/6 58/75/6
f 78/103/6 90/110/6 87/111/6 95/112/6
f 95/112/6 88/113/6 93/114/6 67/84/6
f 58/75/6 92/115/6 89/116/6 78/103/6
f 67/84/6 94/117/6 91/118/6 58/75/6
f 87/111/6 88/113/6 95/112/6
f 89/116/6 90/110/6 78/103/6
f 91/118/6 92/115/6 58/75/6
f 93/114/6 94/117/6 67/84/6
f 95/112/6 99/119/6 96/120/6 104/121/6
f 104/121/6 97/122/6 102/123/6 70/93/6
f 67/84/6 101/124/6 98/125/6 95/112/6
f 70/93/6 103/126/6 100/127/6 67/84/6
f 96/120/6 97/122/6 104/121/6
f 98/125/6 99/119/6 95/112/6
f 100/127/6 101/124/6 67/84/6
f 102/123/6 103/126/6 70/93/6
f 109/128/6 108/129/6 105/130/6 119/131/6
f 119/131/6 106/132/6 112/133/6 78/103/6
f 77/100/6 111/134/6 107/135/6 109/128/6
f 78/103/6 113/136/6 110/137/6 77/100/6
f 105/130/6 106/132/6 119/131/6
f 107/135/6 108/129/6 109/128/6
f 110/137/6 111/134/6 77/100/6
f 112/133/6 113/136/6 78/103/6
f 119/131/6 118/138/6 115/139/6 114/140/6
f 114/140/6 116/141/6 122/142/6 95/112/6
f 78/103/6 121/143/6 117/144/6 119/131/6
f 95/112/6 123/145/6 120/146/6 78/103/6
f 115/139/6 116/141/6 114/140/6
f 117/144/6 118/138/6 119/131/6
f 120/146/6 121/143/6 78/103/6
f 122/142/6 123/145/6 95/112/6
f 114/140/6 127/147/6 124/148/6 132/149/6
f 132/149/6 125/150/6 130/151/6 104/121/6
f 95/112/6 129/152/6 126/153/6 114/140/6
f 104/121/6 131/154/6 128/155/6 95/112/6
f 124/148/6 125/150/6 132/149/6
f 126/153/6 127/147/6 114/140/6
f 128/155/6 129/152/6 95/112/6
f 130/151/6 131/154/6 104/121/6
f 133/156/6 137/157/6 134/158/6 147/159/6
f 147/159/6 135/160/6 140/161/6 119/131/6
f 109/128/6 139/162/6 136/163/6 133/156/6
f 119/131/6 141/164/6 138/165/6 109/128/6
f 134/158/6 135/160/6 147/159/6
f 136/163/6 137/157/6 133/156/6
f 138/165/6 139/162/6 109/128/6
f 140/161/6 141/164/6 119/131/6
f 147/159/6 146/166/6 142/167/6 144/168/6
f 144/168/6 143/169/6 150/170/6 114/140/6
f 119/131/6 149/171/6 145/172/6 147/159/6
f 114/140/6 151/173/6 148/174/6 119/131/6
f 142/167/6 143/169/6 144/168/6
f 145/172/6 146/166/6 147/159/6
f 148/174/6 149/171/6 119/131/6
f 150/170/6 151/173/6 114/140/6
f 144/168/6 155/175/6 152/176/6 160/177/6
f 160/177/6 153/178/6 158/179/6 132/149/6
f 114/140/6 157/180/6 154/181/6 144/168/6
f 132/149/6 159/182/6 156/183/6 114/140/6
f 152/176/6 153/178/6 160/177/6
f 154/181/6 155/175/6 144/168/6
f 156/183/6 157/180/6 114/140/6
f 158/179/6 159/182/6 132/149/6
f 22/184/6 26/185/6 25/186/6 28/187/6 27/188/6 30/189/6 29/190/6 23/191/6
f 32/192/6 35/193/6 34/194/6 37/195/6 36/196/6 39/197/6 38/198/6 33/199/6
f 40/200/6 43/201/6 42/202/6 45/203/6 44/204/6 47/205/6 46/206/6 41/207/6
f 50/208/6 53/209/6 52/210/6 55/211/6 54/212/6 57/213/6 56/214/6 51/215/6
f 59/216/6 62/217/6 61/218/6 64/219/6 63/220/6 66/221/6 65/222/6 60/223/6
f 68/224/6 72/225/6 71/226/6 74/227/6 73/228/6 76/229/6 75/230/6 69/231/6
f 79/232/6 82/233/6 81/234/6 84/235/6 83/236/6 86/237/6 85/238/6 80/239/6
f 87/240/6 90/241/6 89/242/6 92/243/6 91/244/6 94/245/6 93/246/6 88/247/6
f 96/248/6 99/249/6 98/250/6 101/251/6 100/252/6 103/253/6 102/254/6 97/255/6
f 105/256/6 108/257/6 107/258/6 111/259/6 110/260/6 113/261/6 112/262/6 106/263/6
f 115/264/6 118/265/6 117/266/6 121/267/6 120/268/6 123/269/6 122/270/6 116/271/6
f 124/272/6 127/273/6 126/274/6 129/275/6 128/276/6 131/277/6 130/278/6 125/279/6
f 134/280/6 137/281/6 136/282/6 139/283/6 138/284/6 141/285/6 140/286/6 135/287/6
f 142/288/6 146/289/6 145/290/6 149/291/6 148/292/6 151/293/6 150/294/6 143/295/6
f 152/296/6 155/297/6 154/298/6 157/299/6 156/300/6 159/301/6 158/302/6 153/303/6
f 163/304/3 164/305/3 162/306/3 161/307/3
f 166/308/1 167/309/1 168/310/1 165/311/1
f 162/312/7 168/313/7 167/314/7 161/315/7
f 161/316/8 167/317/8 166/318/8 163/319/8
f 164/320/9 165/321/9 168/322/9 162/323/9
f 177/324/3 180/325/3 170/326/3 169/327/3
f 181/328/1 175/329/1 176/330/1 184/331/1
f 170/332/10 176/333/10 175/334/10 169/335/10
f 178/336/11 182/337/11 174/338/11 171/339/11
f 180/340/12 184/341/12 176/342/12 170/343/12
f 172/344/12 173/345/12 183/346/12 179/347/12
f 179/347/12 183/346/12 184/341/12 180/340/12
f 169/348/13 175/329/13 181/328/13 177/349/13
f 177/349/14 181/328/14 182/337/14 178/336/14
f 174/338/1 182/337/1 183/350/1 173/351/1
f 182/337/1 181/328/1 184/331/1 183/350/1
f 171/352/3 172/353/3 179/354/3 178/355/3
f 178/355/3 179/354/3 180/325/3 177/324/3
f 187/356/1 185/357/1 186/358/1 188/359/1
f 190/360/3 189/361/3 192/362/3 191/363/3
f 186/364/7 185/365/7 191/366/7 192/367/7
f 185/368/8 187/369/8 190/370/8 191/371/8
f 188/372/9 186/373/9 192/374/9 189/375/9
f 201/376/1 193/377/1 194/378/1 204/379/1
f 205/380/3 208/381/3 200/382/3 199/383/3
f 194/384/10 193/385/10 199/386/10 200/387/10
f 202/388/11 195/389/11 198/390/11 206/391/11
f 204/392/12 194/393/12 200/394/12 208/395/12
f 196/396/12 203/397/12 207/398/12 197/399/12
f 203/397/12 204/392/12 208/395/12 207/398/12
f 193/400/13 201/401/13 205/402/13 199/403/13
f 201/401/14 202/388/14 206/391/14 205/402/14
f 198/404/3 197/405/3 207/406/3 206/407/3
f 206/407/3 207/406/3 208/381/3 205/380/3
f 195/408/1 202/409/1 203/410/1 196/411/1
f 202/409/1 201/376/1 204/379/1 203/410/1
f 171/339/15 174/338/15 173/351/15 172/412/15
f 195/389/15 196/413/15 197/399/15 198/390/15
