# Blender v2.79 (sub 0) OBJ File: 'Grass_1.blend'
# www.blender.org
mtllib Grass_1.mtl
o Grass_1_Plane.003
v -0.304144 0.207824 -0.268261
v -0.208361 0.273512 -0.273260
v -0.087911 -0.009350 -0.261320
v -0.223491 -0.009350 -0.261625
v 0.035697 0.296321 -0.038199
v -0.069846 0.299930 -0.034634
v 0.053342 -0.009350 -0.041203
v -0.063070 -0.009350 -0.038976
v 0.085958 0.912549 -0.396648
v -0.008334 0.796117 -0.316390
v -0.479828 0.547479 -0.378448
v -0.580387 0.558983 -0.373192
v -0.052084 0.560818 -0.118085
v 0.049788 0.608769 -0.155638
v -0.085781 0.309348 -0.315919
v -0.162781 0.297228 -0.283764
v -0.125298 -0.009350 -0.302254
v -0.233982 0.841551 -0.502214
v -0.242340 0.728399 -0.414164
v -0.046861 -0.009350 -0.331928
v -0.198195 0.509256 -0.318169
v -0.136167 0.564066 -0.371446
v 0.442609 0.224855 -0.339074
v 0.351072 0.285678 -0.374801
v 0.375590 -0.009350 -0.354716
v 0.588729 0.460921 -0.350292
v 0.491294 0.433772 -0.370733
v 0.276425 0.253703 -0.102286
v 0.180933 0.303587 -0.107152
v 0.089507 -0.009350 -0.105987
v 0.569248 0.809976 -0.414495
v 0.455076 0.768542 -0.386931
v 0.353002 0.635683 -0.267707
v 0.455615 0.616957 -0.273497
v 0.266501 -0.009350 -0.395253
v 0.205839 -0.009350 -0.104595
v -0.210995 0.230974 0.307149
v -0.112712 0.278644 0.285291
v -0.184197 -0.009350 0.294839
v -0.524079 0.867724 0.356490
v -0.413841 0.812674 0.341491
v -0.209187 0.462018 0.304622
v -0.312721 0.439334 0.324572
v -0.069142 -0.009350 0.272565
v 0.110995 0.289923 0.277494
v 0.001421 0.292731 0.278693
v 0.128457 -0.009350 0.283987
v 0.161339 0.981187 0.285469
v 0.070629 0.836995 0.279380
v 0.012217 -0.009350 0.283754
v 0.019119 0.553876 0.278839
v 0.128907 0.600244 0.277727
v 0.438890 0.107937 0.041744
v 0.359921 0.140729 -0.015817
v 0.430042 -0.009350 0.027588
v 0.504053 0.363864 0.075400
v 0.404887 0.240699 0.016370
v 0.353379 -0.009350 -0.025111
v 0.138138 0.305030 0.059566
v 0.223737 0.291472 0.059861
v 0.095383 -0.009350 0.065702
v 0.214325 0.866309 0.067025
v 0.257400 0.728946 0.060570
v 0.179174 -0.009350 0.064972
v 0.247902 0.499431 0.060165
v 0.168883 0.554962 0.059433
v -0.284366 0.235830 0.033400
v -0.189279 0.292577 0.040472
v -0.098388 -0.009350 0.037722
v -0.325027 0.448084 0.087387
v -0.566019 0.195850 0.058529
v -0.474938 0.252826 0.054706
v -0.679217 0.425686 0.096383
v -0.566260 0.352404 0.073716
v -0.214687 -0.009350 0.035969
v -0.507609 -0.009350 0.049394
v -0.400712 -0.009350 0.047273
v -0.419543 0.476265 0.114936
v -0.301521 0.227819 -0.189990
v -0.209970 0.286213 -0.200460
v -0.086688 -0.009350 -0.197624
v -0.222805 -0.009350 -0.194170
v 0.033738 0.280366 -0.114408
v -0.080206 0.284084 -0.108045
v 0.052024 -0.009350 -0.106388
v -0.064218 -0.009350 -0.104646
v 0.088244 0.863690 -0.441118
v 0.000545 0.740725 -0.371249
v -0.480782 0.576458 -0.311250
v -0.586254 0.578666 -0.312980
v -0.063265 0.525619 -0.185499
v 0.057115 0.555283 -0.217208
v -0.113699 0.297439 -0.386741
v -0.194838 0.284259 -0.352080
v -0.147713 -0.009350 -0.364650
v -0.250150 0.804195 -0.553908
v -0.273522 0.686129 -0.470813
v -0.069040 -0.009350 -0.392840
v -0.233244 0.482782 -0.380919
v -0.165508 0.523562 -0.433536
v 0.416068 0.238177 -0.264751
v 0.329721 0.294805 -0.305407
v 0.350774 -0.009350 -0.292362
v 0.572612 0.480464 -0.292391
v 0.474489 0.452233 -0.300544
v 0.275365 0.233260 -0.178215
v 0.171310 0.287126 -0.179940
v 0.089920 -0.009350 -0.170160
v 0.562769 0.767599 -0.464401
v 0.455645 0.715193 -0.442806
v 0.342001 0.597928 -0.334170
v 0.452773 0.565687 -0.336601
v 0.242853 -0.009350 -0.335676
v 0.206373 -0.009350 -0.171628
v -0.225803 0.230974 0.228005
v -0.126267 0.278644 0.212848
v -0.196368 -0.009350 0.229793
v -0.535545 0.867724 0.295208
v -0.427342 0.812674 0.269334
v -0.223204 0.462018 0.229709
v -0.326947 0.439334 0.248544
v -0.081044 -0.009350 0.208960
v 0.110995 0.289923 0.355690
v 0.001421 0.292731 0.354491
v 0.128457 -0.009350 0.349198
v 0.161339 0.981187 0.347716
v 0.070629 0.836995 0.353805
v 0.012217 -0.009350 0.349431
v 0.019119 0.553876 0.354345
v 0.128907 0.600244 0.355457
v 0.483597 0.107937 -0.024177
v 0.400907 0.140729 -0.076252
v 0.467173 -0.009350 -0.027162
v 0.538971 0.363864 0.023912
v 0.447444 0.240699 -0.046382
v 0.389852 -0.009350 -0.078892
v 0.138138 0.305030 0.136674
v 0.223737 0.291472 0.136379
v 0.095384 -0.009350 0.130539
v 0.214325 0.866309 0.129215
v 0.257399 0.728947 0.135671
v 0.179174 -0.009350 0.131267
v 0.247902 0.499431 0.136075
v 0.168883 0.554962 0.136808
v -0.282536 0.222510 0.112329
v -0.184338 0.283440 0.112875
v -0.099126 -0.009350 0.101822
v -0.315550 0.429585 0.158946
v -0.570604 0.202506 -0.020649
v -0.480856 0.257095 -0.017721
v -0.681206 0.436199 0.034497
v -0.579496 0.360558 -0.000439
v -0.215516 -0.009350 0.103060
v -0.507370 -0.009350 -0.017733
v -0.400771 -0.009350 -0.016832
v -0.413804 0.456750 0.174766
vt 0.204866 0.892250
vt 0.204811 0.892247
vt 0.204831 0.892113
vt 0.204886 0.892150
vt 0.205286 0.892234
vt 0.205234 0.892232
vt 0.205246 0.892099
vt 0.205303 0.892103
vt 0.205470 0.892270
vt 0.205490 0.892148
vt 0.205532 0.892085
vt 0.205523 0.892248
vt 0.204886 0.892456
vt 0.204848 0.892424
vt 0.205288 0.892372
vt 0.205238 0.892348
vt 0.205681 0.891926
vt 0.205720 0.891925
vt 0.205723 0.892059
vt 0.205684 0.892065
vt 0.205396 0.891995
vt 0.205445 0.892011
vt 0.205458 0.892115
vt 0.205416 0.892073
vt 0.205685 0.891812
vt 0.205721 0.891831
vt 0.205638 0.892236
vt 0.205655 0.892338
vt 0.205608 0.892359
vt 0.205586 0.892230
vt 0.205437 0.891825
vt 0.205385 0.891823
vt 0.205407 0.891683
vt 0.205458 0.891708
vt 0.205618 0.892143
vt 0.205655 0.892113
vt 0.205657 0.892339
vt 0.205699 0.892358
vt 0.205697 0.892492
vt 0.205667 0.892437
vt 0.205122 0.891996
vt 0.205152 0.892096
vt 0.205099 0.892119
vt 0.205069 0.891996
vt 0.205080 0.891905
vt 0.205112 0.891726
vt 0.205152 0.891683
vt 0.205131 0.891894
vt 0.205519 0.892381
vt 0.205532 0.892510
vt 0.205475 0.892511
vt 0.205465 0.892382
vt 0.205708 0.891683
vt 0.205723 0.891732
vt 0.205580 0.892517
vt 0.205540 0.892525
vt 0.205551 0.892461
vt 0.205586 0.892467
vt 0.205586 0.892631
vt 0.205552 0.892571
vt 0.205303 0.892512
vt 0.205258 0.892456
vt 0.205698 0.892250
vt 0.205655 0.892250
vt 0.205658 0.892119
vt 0.205699 0.892113
vt 0.205121 0.892255
vt 0.205069 0.892255
vt 0.205088 0.892119
vt 0.205138 0.892145
vt 0.205637 0.892472
vt 0.205648 0.892565
vt 0.205600 0.892586
vt 0.205586 0.892468
vt 0.205610 0.892411
vt 0.205648 0.892359
vt 0.205138 0.892373
vt 0.205101 0.892342
vt 0.205360 0.892311
vt 0.205385 0.892417
vt 0.205330 0.892455
vt 0.205308 0.892315
vt 0.205514 0.891958
vt 0.205532 0.892082
vt 0.205475 0.892085
vt 0.205458 0.891960
vt 0.205536 0.891926
vt 0.205589 0.891948
vt 0.205599 0.892113
vt 0.205557 0.892049
vt 0.205343 0.892136
vt 0.205385 0.892106
vt 0.205461 0.891851
vt 0.205520 0.891832
vt 0.205723 0.891816
vt 0.205726 0.891683
vt 0.205765 0.891688
vt 0.205765 0.891816
vt 0.205323 0.891806
vt 0.205349 0.891728
vt 0.205385 0.891683
vt 0.205378 0.891794
vt 0.205765 0.891905
vt 0.205727 0.891919
vt 0.205434 0.892246
vt 0.205385 0.892251
vt 0.205408 0.892115
vt 0.205454 0.892138
vt 0.205367 0.891972
vt 0.205385 0.892080
vt 0.205335 0.892106
vt 0.205311 0.891975
vt 0.205454 0.892375
vt 0.205417 0.892343
vt 0.205600 0.891837
vt 0.205610 0.891739
vt 0.205640 0.891683
vt 0.205642 0.891819
vt 0.205205 0.891805
vt 0.205152 0.891804
vt 0.205182 0.891683
vt 0.205234 0.891705
vt 0.205163 0.891895
vt 0.205215 0.891906
vt 0.205234 0.892114
vt 0.205195 0.892072
vt 0.205586 0.891813
vt 0.205532 0.891813
vt 0.205542 0.891683
vt 0.205599 0.891684
vt 0.205763 0.892000
vt 0.205738 0.892053
vt 0.205778 0.892599
vt 0.205780 0.892649
vt 0.205745 0.892652
vt 0.205736 0.892589
vt 0.205749 0.892545
vt 0.205780 0.892490
vt 0.205491 0.891743
vt 0.205532 0.891683
vt 0.205641 0.891928
vt 0.205642 0.892066
vt 0.205602 0.892060
vt 0.205599 0.891928
vt 0.205042 0.892247
vt 0.205057 0.892352
vt 0.205006 0.892377
vt 0.204988 0.892245
vt 0.205434 0.892493
vt 0.205385 0.892496
vt 0.205398 0.892375
vt 0.205445 0.892398
vt 0.205445 0.892605
vt 0.205411 0.892556
vt 0.205019 0.892160
vt 0.205057 0.892129
vt 0.205586 0.892119
vt 0.205568 0.892234
vt 0.205532 0.892232
vt 0.205556 0.892113
vt 0.205586 0.892416
vt 0.205552 0.892418
vt 0.204904 0.891799
vt 0.204959 0.891683
vt 0.204988 0.891694
vt 0.204941 0.891806
vt 0.204873 0.892113
vt 0.204819 0.892002
vt 0.204855 0.891996
vt 0.204903 0.892101
vt 0.204860 0.891757
vt 0.204875 0.891683
vt 0.204903 0.891692
vt 0.204894 0.891766
vt 0.204811 0.891888
vt 0.204848 0.891891
vt 0.204959 0.892110
vt 0.204903 0.891944
vt 0.204940 0.891935
vt 0.204988 0.892099
vt 0.204957 0.892444
vt 0.204942 0.892539
vt 0.204903 0.892536
vt 0.204927 0.892442
vt 0.205578 0.892459
vt 0.205547 0.892461
vt 0.204953 0.892442
vt 0.204910 0.892332
vt 0.204943 0.892335
vt 0.204982 0.892439
vt 0.204924 0.892165
vt 0.204953 0.892110
vt 0.204982 0.892122
vt 0.204955 0.892181
vt 0.204903 0.892252
vt 0.204935 0.892262
vt 0.205189 0.892464
vt 0.205154 0.892348
vt 0.205186 0.892333
vt 0.205215 0.892451
vt 0.205152 0.892242
vt 0.205185 0.892240
vt 0.205149 0.892409
vt 0.205113 0.892409
vt 0.205115 0.892373
vt 0.205148 0.892379
vt 0.205040 0.892129
vt 0.204988 0.891996
vt 0.205024 0.891991
vt 0.205069 0.892117
vt 0.205035 0.891724
vt 0.205039 0.891683
vt 0.205069 0.891691
vt 0.205069 0.891734
vt 0.205004 0.891813
vt 0.205040 0.891817
vt 0.205250 0.891985
vt 0.205234 0.891791
vt 0.205272 0.891798
vt 0.205287 0.891977
vt 0.205281 0.892099
vt 0.205311 0.892092
vt 0.205777 0.892424
vt 0.205775 0.892366
vt 0.205811 0.892366
vt 0.205807 0.892425
vt 0.205774 0.892197
vt 0.205774 0.892113
vt 0.205810 0.892114
vt 0.205811 0.892198
vt 0.205108 0.892543
vt 0.205113 0.892682
vt 0.205085 0.892674
vt 0.205074 0.892532
vt 0.205105 0.892475
vt 0.205069 0.892464
vt 0.205699 0.892538
vt 0.205699 0.892413
vt 0.205736 0.892412
vt 0.205731 0.892538
vt 0.205681 0.891683
vt 0.205679 0.891758
vt 0.205643 0.891757
vt 0.205651 0.891683
vt 0.205679 0.891881
vt 0.205680 0.891990
vt 0.205643 0.891989
vt 0.205642 0.891880
vt 0.205699 0.892279
vt 0.205702 0.892114
vt 0.205732 0.892113
vt 0.205736 0.892278
vt 0.205208 0.892577
vt 0.205215 0.892649
vt 0.205188 0.892648
vt 0.205174 0.892576
vt 0.205206 0.892526
vt 0.205174 0.892525
vt 0.205385 0.892455
vt 0.205385 0.892570
vt 0.205349 0.892571
vt 0.205357 0.892455
vt 0.205803 0.891923
vt 0.205800 0.892058
vt 0.205768 0.892057
vt 0.205766 0.891922
vt 0.205737 0.892168
vt 0.205744 0.892114
vt 0.205774 0.892113
vt 0.205773 0.892168
vt 0.205737 0.892358
vt 0.205773 0.892266
vt 0.205774 0.892357
vt 0.205800 0.891683
vt 0.205803 0.891817
vt 0.205765 0.891816
vt 0.205770 0.891683
vt 0.205500 0.892511
vt 0.205500 0.892632
vt 0.205465 0.892632
vt 0.205469 0.892514
vt 0.205693 0.892492
vt 0.205692 0.892557
vt 0.205655 0.892555
vt 0.205662 0.892494
vt 0.205693 0.892618
vt 0.205657 0.892621
vt 0.205165 0.892546
vt 0.205174 0.892623
vt 0.205144 0.892619
vt 0.205128 0.892537
vt 0.204836 0.892625
vt 0.204811 0.892539
vt 0.204849 0.892547
vt 0.204864 0.892628
vt 0.204957 0.892611
vt 0.204925 0.892615
vt 0.205188 0.892114
vt 0.205215 0.892117
vt 0.205035 0.892380
vt 0.205026 0.892486
vt 0.204988 0.892488
vt 0.205003 0.892377
vt 0.205343 0.892545
vt 0.205349 0.892679
vt 0.205319 0.892683
vt 0.205308 0.892544
vt 0.205349 0.892460
vt 0.205314 0.892455
vt 0.205281 0.891683
vt 0.205311 0.891696
vt 0.205035 0.892600
vt 0.205006 0.892606
vt 0.205113 0.892382
vt 0.205084 0.892373
vt 0.205500 0.892634
vt 0.205504 0.892515
vt 0.205534 0.892511
vt 0.205534 0.892630
vt 0.205681 0.892109
vt 0.205649 0.892109
vt 0.205384 0.892622
vt 0.205354 0.892622
vt 0.205215 0.892465
vt 0.205186 0.892464
vt 0.205741 0.892490
vt 0.205774 0.892489
vt 0.204834 0.892456
vt 0.204864 0.892466
vt 0.204900 0.892551
vt 0.204899 0.892598
vt 0.204864 0.892552
vt 0.204900 0.892456
vt 0.204865 0.892460
vt 0.205174 0.892473
vt 0.205142 0.892464
vt 0.205269 0.892620
vt 0.205272 0.892514
vt 0.205303 0.892512
vt 0.205303 0.892618
vn 0.0102 -0.1615 -0.9868
vn 0.0116 -0.1704 -0.9853
vn -0.0087 -0.0406 -0.9991
vn 0.0717 0.1547 0.9854
vn 0.0729 0.1591 0.9846
vn 0.0259 -0.0109 0.9996
vn -0.0024 0.0044 -1.0000
vn 0.0147 0.0106 -0.9998
vn 0.0058 0.0073 -1.0000
vn 0.0312 -0.2938 -0.9554
vn -0.0125 0.5471 0.8370
vn 0.0625 0.4222 0.9043
vn 0.3984 0.1230 0.9089
vn 0.3975 0.1183 0.9100
vn 0.3700 -0.0060 0.9290
vn 0.1060 0.4620 0.8805
vn 0.0905 0.5106 0.8550
vn 0.0603 0.5982 0.7991
vn 0.4239 0.4021 0.8115
vn 0.4227 0.3168 0.8491
vn 0.3020 -0.1108 -0.9469
vn 0.3458 -0.0351 -0.9377
vn 0.2954 -0.1217 -0.9476
vn 0.0471 0.1782 0.9829
vn 0.0595 0.2064 0.9767
vn -0.0281 0.0059 0.9996
vn 0.2460 -0.2010 -0.9482
vn -0.0025 0.0052 -1.0000
vn -0.0111 0.0109 -0.9999
vn -0.0203 0.0168 -0.9997
vn 0.2035 -0.0061 0.9791
vn 0.2066 -0.0188 0.9782
vn 0.2029 -0.0037 0.9792
vn 0.1843 0.0050 0.9829
vn 0.1612 -0.0011 0.9869
vn 0.1775 0.0032 0.9841
vn -0.0076 -0.0092 -0.9999
vn -0.0045 -0.0194 -0.9998
vn -0.0077 -0.0090 -0.9999
vn 0.4220 0.4736 0.7730
vn -0.5697 -0.0122 0.8218
vn -0.5682 -0.0094 0.8228
vn -0.5829 -0.0376 0.8116
vn -0.5537 0.0173 0.8325
vn -0.0722 0.6365 0.7679
vn 0.0011 -0.0089 -1.0000
vn 0.0010 -0.0092 -1.0000
vn -0.0040 -0.0177 -0.9998
vn -0.0419 0.1072 -0.9934
vn -0.0526 0.1199 -0.9914
vn 0.0386 0.0117 -0.9992
vn 0.0743 -0.0564 0.9956
vn 0.0371 -0.0249 0.9990
vn 0.0805 -0.0616 0.9948
vn 0.1206 -0.0957 0.9881
vn -0.1374 0.2194 -0.9659
vn 0.0078 0.1583 0.9874
vn 0.0562 0.0188 0.9982
vn 0.0050 0.1662 0.9861
vn -0.0771 -0.1713 -0.9822
vn -0.0355 -0.0217 -0.9991
vn -0.0779 -0.1742 -0.9816
vn -0.0024 0.0044 1.0000
vn 0.0058 0.0073 1.0000
vn 0.0147 0.0106 0.9998
vn -0.0454 0.3072 0.9505
vn -0.0519 -0.4306 -0.9010
vn 0.0046 -0.5193 -0.8546
vn -0.3963 -0.1378 -0.9077
vn -0.3640 -0.0267 -0.9310
vn -0.3959 -0.1364 -0.9081
vn -0.1058 -0.4532 -0.8851
vn -0.0364 -0.5783 -0.8150
vn -0.0865 -0.4895 -0.8677
vn -0.4178 -0.3198 -0.8504
vn -0.4124 -0.3751 -0.8302
vn -0.3166 0.1072 0.9425
vn -0.3061 0.1196 0.9445
vn -0.3937 0.0122 0.9191
vn -0.0748 -0.1907 -0.9788
vn -0.0059 -0.0287 -0.9996
vn -0.0840 -0.2121 -0.9736
vn -0.2180 0.2186 0.9512
vn -0.0025 0.0052 1.0000
vn -0.0203 0.0168 0.9997
vn -0.0111 0.0109 0.9999
vn -0.1643 -0.0061 -0.9864
vn -0.1649 -0.0037 -0.9863
vn -0.1611 -0.0188 -0.9868
vn -0.1836 0.0050 -0.9830
vn -0.1904 0.0032 -0.9817
vn -0.2066 -0.0011 -0.9784
vn -0.0076 -0.0092 0.9999
vn -0.0077 -0.0090 0.9999
vn -0.0045 -0.0194 0.9998
vn -0.4025 -0.4502 -0.7971
vn 0.5527 -0.0122 -0.8333
vn 0.5384 -0.0376 -0.8418
vn 0.5542 -0.0094 -0.8323
vn 0.5687 0.0173 -0.8224
vn 0.0770 -0.6231 -0.7784
vn 0.0011 -0.0089 1.0000
vn -0.0040 -0.0177 0.9998
vn 0.0010 -0.0092 1.0000
vn 0.0574 -0.1109 0.9922
vn 0.0131 -0.0349 0.9993
vn 0.0639 -0.1219 0.9905
vn -0.0564 0.0512 -0.9971
vn -0.0674 0.0588 -0.9960
vn 0.0200 -0.0019 -0.9998
vn -0.1512 0.1170 -0.9815
vn 0.1103 -0.2015 0.9733
vn 0.9213 0.3874 -0.0334
vn 0.8448 0.5242 -0.1076
vn 0.8438 0.5256 -0.1084
vn 0.7427 0.6454 -0.1786
vn 0.9998 0.0082 0.0159
vn 0.9978 0.0600 -0.0299
vn 0.9998 0.0098 0.0146
vn -0.9955 -0.0377 0.0867
vn -0.9942 0.0369 0.1009
vn -0.9945 0.0313 0.0998
vn -0.9213 0.2591 -0.2898
vn -0.8236 0.3426 -0.4521
vn -0.9315 0.2471 -0.2671
vn -0.9915 0.1297 0.0096
vn -0.9915 0.1299 0.0087
vn 0.9933 -0.0236 0.1128
vn 0.9955 -0.0312 0.0899
vn 0.9960 -0.0335 0.0829
vn -0.7955 -0.5871 0.1496
vn -0.8821 -0.4586 0.1077
vn -0.8749 -0.4712 0.1117
vn 0.0561 0.9337 -0.3536
vn -0.9075 -0.1483 0.3929
vn -0.8926 -0.1152 0.4359
vn -0.8937 -0.1175 0.4330
vn -0.9270 0.1639 0.3374
vn -0.9380 0.2799 0.2042
vn -0.9236 0.1495 0.3529
vn -0.8805 -0.0260 0.4734
vn -0.8804 -0.0274 0.4734
vn 0.8980 0.1009 -0.4282
vn 0.8984 0.1006 -0.4275
vn 0.8985 0.1005 -0.4274
vn 0.9108 0.1179 -0.3956
vn 0.9110 0.1182 -0.3950
vn -0.2127 0.9205 -0.3278
vn -0.9614 0.2732 0.0318
vn -0.9297 0.3682 -0.0077
vn -0.9316 0.3635 -0.0057
vn -0.4222 0.6838 -0.5952
vn -0.8705 0.4646 -0.1628
vn -0.8706 0.4645 -0.1621
vn 0.9067 -0.3709 0.2008
vn 0.9385 -0.3284 0.1066
vn 0.9402 -0.3248 0.1024
vn 0.9069 -0.3733 0.1954
vn 0.9055 -0.3604 0.2239
vn -0.8380 0.4694 -0.2781
vn 0.4364 0.8961 -0.0816
vn 0.8560 0.4916 -0.1602
vn 0.9314 0.3195 -0.1743
vn -0.8802 -0.4450 0.1647
vn -0.8796 -0.4463 0.1646
vn 0.8455 0.5101 -0.1582
vn -0.9418 -0.2864 0.1762
vn 0.9983 0.0582 -0.0000
vn 1.0000 -0.0001 0.0000
vn -0.8464 0.5325 -0.0000
vn -0.9329 0.3601 -0.0000
vn -0.9923 0.1235 -0.0000
vn -0.9999 0.0162 -0.0000
vn 0.9975 -0.0711 0.0000
vn 0.9964 -0.0848 0.0000
vn -0.6700 0.5871 -0.4544
vn -0.6044 0.6831 -0.4099
vn -0.7929 0.2866 -0.5377
vn 0.7960 -0.2737 0.5399
vn 0.8105 -0.2025 0.5497
vn -0.9917 0.1284 -0.0000
vn -0.9909 0.1348 0.0000
vn 0.9917 0.1283 0.0000
vn 0.9542 0.2992 -0.0000
vn 0.9914 -0.1309 -0.0000
vn 0.9969 -0.0785 0.0000
vn -0.9895 0.1444 0.0000
vn -0.9911 0.1332 -0.0000
vn 0.9587 0.2841 -0.0105
vn 0.8756 0.4827 0.0206
vn 0.8776 0.4791 0.0200
vn 0.5779 0.8148 0.0471
vn 0.6583 0.7528 0.0039
vn 0.6555 0.7552 0.0054
vn 0.8673 0.4965 -0.0360
vn 0.8645 0.5013 -0.0360
vn -0.9338 -0.3577 0.0026
vn -0.9013 -0.4330 -0.0107
vn -0.9338 -0.3578 0.0025
vn -0.8784 -0.4736 -0.0642
vn -0.9247 -0.3783 -0.0420
vn -0.9261 -0.3750 -0.0412
vn -0.9416 -0.3299 0.0667
vn 0.9219 0.1360 -0.3629
vn 0.8903 -0.2770 0.3615
vn 0.8495 -0.3759 0.3703
vn 0.8479 -0.3793 0.3705
vn -0.8124 0.4788 -0.3329
vn -0.8985 0.2853 -0.3337
vn -0.8103 0.4824 -0.3328
vn -0.6889 0.6518 -0.3171
vn 0.9635 -0.2657 0.0344
vn 0.7969 -0.4738 0.3748
vn -0.9761 -0.1182 0.1826
vn 0.9711 0.1549 -0.1817
vn -0.9994 -0.0357 -0.0000
vn 0.8207 -0.1291 0.5566
vn -0.8256 0.0707 -0.5599
vn 0.9892 -0.1465 -0.0000
vn -0.9612 -0.2752 -0.0185
vn 0.3160 0.9205 0.2297
vn 0.7555 0.6533 0.0497
vn -0.9598 -0.2802 0.0158
vn 0.9593 0.2804 -0.0332
usemtl Atlas
s 1
f 1/1/1 2/2/2 3/3/3 4/4/3
f 5/5/4 6/6/5 8/7/6 7/8/6
f 51/9/7 49/10/8 48/11/8 52/12/9
f 2/2/2 1/1/1 12/13/10 11/14/10
f 6/6/5 5/5/4 14/15/11 13/16/12
f 15/17/13 16/18/14 17/19/15 20/20/15
f 33/21/16 34/22/17 31/23/18 32/24/18
f 16/18/14 15/17/13 22/25/19 21/26/20
f 23/27/21 25/28/22 35/29/22 24/30/23
f 28/31/24 29/32/25 30/33/26 36/34/26
f 29/32/25 28/31/24 34/22/17 33/21/16
f 24/30/23 27/35/27 26/36/27 23/27/21
f 65/37/28 66/38/29 62/39/30 63/40/30
f 37/41/31 39/42/32 44/43/32 38/44/33
f 42/45/34 41/46/35 40/47/35 43/48/36
f 38/44/33 42/45/34 43/48/36 37/41/31
f 45/49/37 47/50/38 50/51/38 46/52/39
f 21/26/20 22/25/19 18/53/40 19/54/40
f 46/52/39 51/9/7 52/12/9 45/49/37
f 53/55/41 54/56/42 58/57/43 55/58/43
f 54/56/42 53/55/41 56/59/44 57/60/44
f 13/16/12 14/15/11 9/61/45 10/62/45
f 59/63/46 60/64/47 64/65/48 61/66/48
f 60/64/47 59/63/46 66/38/29 65/37/28
f 67/67/49 68/68/50 69/69/51 75/70/51
f 71/71/52 76/72/53 77/73/53 72/74/54
f 72/74/54 74/75/55 73/76/55 71/71/52
f 68/68/50 67/67/49 78/77/56 70/78/56
f 79/79/57 82/80/58 81/81/58 80/82/59
f 83/83/60 85/84/61 86/85/61 84/86/62
f 129/87/63 130/88/64 126/89/65 127/90/65
f 80/82/59 89/91/66 90/92/66 79/79/57
f 84/86/62 91/93/67 92/94/68 83/83/60
f 93/95/69 98/96/70 95/97/70 94/98/71
f 111/99/72 110/100/73 109/101/73 112/102/74
f 94/98/71 99/103/75 100/104/76 93/95/69
f 101/105/77 102/106/78 113/107/79 103/108/79
f 106/109/80 114/110/81 108/111/81 107/112/82
f 107/112/82 111/99/72 112/102/74 106/109/80
f 102/106/78 101/105/77 104/113/83 105/114/83
f 143/115/84 141/116/85 140/117/85 144/118/86
f 115/119/87 116/120/88 122/121/89 117/122/89
f 120/123/90 121/124/91 118/125/92 119/126/92
f 116/120/88 115/119/87 121/124/91 120/123/90
f 123/127/93 124/128/94 128/129/95 125/130/95
f 99/103/75 97/131/96 96/132/96 100/104/76
f 124/128/94 123/127/93 130/88/64 129/87/63
f 131/133/97 133/134/98 136/135/98 132/136/99
f 132/136/99 135/137/100 134/138/100 131/133/97
f 91/93/67 88/139/101 87/140/101 92/94/68
f 137/141/102 139/142/103 142/143/103 138/144/104
f 138/144/104 143/115/84 144/118/86 137/141/102
f 145/145/105 153/146/106 147/147/106 146/148/107
f 149/149/108 150/150/109 155/151/110 154/152/110
f 150/150/109 149/149/108 151/153/111 152/154/111
f 146/148/107 148/155/112 156/156/112 145/145/105
f 3/157/113 2/158/114 80/159/115 81/160/113
f 2/158/114 11/161/116 89/162/116 80/159/115
f 5/163/117 7/164/118 85/165/118 83/166/119
f 8/167/120 6/168/121 84/169/122 86/170/120
f 10/171/123 9/172/124 87/173/124 88/174/125
f 6/168/121 13/175/126 91/176/127 84/169/122
f 9/177/128 14/178/129 92/179/130 87/180/128
f 12/181/131 1/182/132 79/183/133 90/184/131
f 11/161/134 12/185/134 90/186/134 89/162/134
f 13/175/126 10/171/123 88/174/125 91/176/127
f 14/178/129 5/163/117 83/166/119 92/179/130
f 17/187/135 16/188/136 94/189/137 95/190/135
f 19/191/138 18/192/139 96/193/139 97/194/140
f 16/188/136 21/195/141 99/196/142 94/189/137
f 18/197/143 22/198/144 100/199/145 96/200/143
f 21/195/141 19/191/138 97/194/140 99/196/142
f 22/198/144 15/201/146 93/202/147 100/199/145
f 26/203/148 27/204/148 105/205/148 104/206/148
f 30/207/149 29/208/150 107/209/151 108/210/149
f 32/211/152 31/212/152 109/213/152 110/214/152
f 29/208/150 33/215/153 111/216/154 107/209/151
f 34/217/155 28/218/156 106/219/157 112/220/158
f 31/221/159 34/217/155 112/220/158 109/222/159
f 33/215/153 32/211/160 110/214/160 111/216/154
f 40/223/161 41/224/161 119/225/161 118/226/161
f 42/227/162 38/228/163 116/229/163 120/230/162
f 43/231/164 40/232/165 118/233/165 121/234/164
f 41/224/166 42/227/162 120/230/162 119/225/166
f 37/235/167 43/231/164 121/234/164 115/236/167
f 47/237/168 45/238/169 123/239/169 125/240/168
f 48/241/170 49/242/171 127/243/171 126/244/170
f 51/245/172 46/246/173 124/247/173 129/248/172
f 52/249/174 48/250/175 126/251/175 130/252/174
f 49/242/171 51/245/172 129/248/172 127/243/171
f 45/238/169 52/249/174 130/252/174 123/239/169
f 57/253/176 56/254/177 134/255/177 135/256/176
f 54/257/178 57/253/176 135/256/176 132/258/178
f 56/259/179 53/260/180 131/261/180 134/262/179
f 59/263/181 61/264/182 139/265/182 137/266/181
f 63/267/183 62/268/184 140/269/184 141/270/183
f 60/271/185 65/37/186 143/272/186 138/273/185
f 62/274/187 66/275/188 144/276/188 140/277/187
f 65/37/186 63/267/183 141/270/183 143/272/186
f 66/275/188 59/263/181 137/266/181 144/276/188
f 69/278/189 68/279/190 146/280/191 147/281/189
f 73/282/192 74/283/193 152/284/194 151/285/192
f 74/283/193 72/286/195 150/287/196 152/284/194
f 71/288/197 73/289/198 151/290/198 149/291/199
f 78/292/200 67/293/201 145/294/202 156/295/200
f 1/182/132 4/296/203 82/297/203 79/183/133
f 15/201/146 20/298/204 98/299/204 93/202/147
f 25/300/205 23/301/206 101/302/207 103/303/205
f 24/304/208 35/305/209 113/306/209 102/307/210
f 27/308/211 24/304/208 102/307/210 105/309/211
f 28/218/156 36/310/212 114/311/212 106/219/157
f 23/301/206 26/312/213 104/313/213 101/302/207
f 39/314/214 37/235/167 115/236/167 117/315/214
f 38/316/163 44/317/215 122/318/215 116/319/163
f 46/246/173 50/320/216 128/321/216 124/247/173
f 53/260/180 55/322/217 133/323/217 131/261/180
f 58/324/218 54/257/178 132/258/178 136/325/218
f 64/326/219 60/271/185 138/273/185 142/327/219
f 67/293/201 75/328/220 153/329/220 145/294/202
f 70/330/221 78/331/221 156/295/221 148/332/221
f 68/333/190 70/330/222 148/332/222 146/334/191
f 76/335/223 71/288/197 149/291/199 154/336/223
f 72/337/195 77/338/224 155/339/224 150/340/196
